<?xml version="1.0" encoding="UTF-8"?>
<svg width="48px" height="48px" viewBox="0 0 48 48" version="1.1" xmlns="http://www.w3.org/2000/svg" xmlns:xlink="http://www.w3.org/1999/xlink">
    <!-- Generator: Sketch Beta 50 (54935) - http://www.bohemiancoding.com/sketch -->
    <title>Avatar - muted</title>
    <desc>Created with Sketch Beta.</desc>
    <defs>
        <circle id="path-1" cx="24" cy="24" r="24"></circle>
    </defs>
    <g id="Tags,-Badges,-Avatars" stroke="none" stroke-width="1" fill="none" fill-rule="evenodd">
        <g id="Avatars" transform="translate(-339.000000, -399.000000)">
            <g id="Avatars/Muted" transform="translate(339.000000, 399.000000)">
                <g id="avatar">
                    <mask id="mask-2" fill="white">
                        <use xlink:href="#path-1"></use>
                    </mask>
                    <use id="Mask" fill="#D0D2D3" xlink:href="#path-1"></use>
                    <path d="M38.0143526,22.9754612 C39.7589985,22.9733304 41.33477,24.0105573 42.0125096,25.6071854 C42.6902493,27.2038136 42.3377527,29.0483943 41.118131,30.2873837 C39.8985092,31.5263731 38.0496695,31.9180859 36.4271265,31.2812646 C36.0563379,32.1980032 35.5830844,33.0704977 35.0162589,33.8823529 L31.4182166,31.4744228 L31.4495326,31.4351365 C32.402198,30.2205314 32.9840161,28.4329994 33.0812605,26.653652 C33.1883941,24.6909681 32.7054686,22.7413795 31.444588,21.5955257 C28.8503056,19.3971232 26.0104401,20.3989269 24.235318,22.5072979 L23.7589853,22.5072979 C21.9888079,20.3989269 19.1522386,19.3954863 16.5497152,21.5955257 C15.2871865,22.7413795 14.8059092,24.6893311 14.9130428,26.653652 C15.0119354,28.4329994 15.5937535,30.2205314 16.5447706,31.4351365 L16.5760866,31.4744228 L12.9780444,33.8823529 C12.4123645,33.0703445 11.9402198,32.197856 11.5704732,31.2812646 C9.82837466,31.9627475 7.84259967,31.456324 6.64662576,30.0255574 C5.45065185,28.5947906 5.31481781,26.5630923 6.30981716,24.9878402 C7.3048165,23.4125882 9.20573889,22.6498536 11.0232675,23.0965943 C12.3174113,18.0580584 16.4549522,14.2342047 21.6080714,13.3142762 C21.3377649,11.7968383 20.230168,11.2468284 20.230168,11.2468284 L20.6455168,10.5805963 C21.4811592,10.7786653 23.1689261,11.8263031 23.348581,12.6627764 C23.7589853,9.58697728 27.3850471,8.47058824 27.3850471,8.47058824 L27.6784285,9.20557164 C25.8208959,10.5085712 25.7632086,11.9572578 25.7236515,13.2111493 C25.9593455,13.2406141 26.16702,13.2717159 26.3977693,13.3126392 C31.5512141,14.2355918 35.6870223,18.0628299 36.9776286,23.1031419 C37.3168215,23.0195742 37.6648813,22.976708 38.0143526,22.9754612 Z M9.31721066,28.2262268 L9.31393763,28.2352941 C9.52449363,28.2337584 9.72714982,28.1018635 9.88235294,27.8653519 C9.82919665,27.1315875 9.79897149,26.3937346 9.79179926,25.6547659 C9.65157011,25.497438 9.48639339,25.4128634 9.31721066,25.4117647 C8.849634,25.4117647 8.47058824,26.0418035 8.47058824,26.8189958 C8.47058824,27.596188 8.849634,28.2262268 9.31721066,28.2262268 Z M38.6832126,28.2262303 L38.6843043,28.2352941 C38.9097621,28.2353093 39.1258761,28.0857463 39.2845795,27.8198696 C39.4432829,27.553993 39.5314162,27.1938492 39.5293772,26.8195394 C39.5300231,26.2989056 39.3571976,25.8203694 39.0802872,25.5760553 C38.8033768,25.3317411 38.4677936,25.3617153 38.2082686,25.6539437 C38.2010909,26.3926287 38.1708432,27.1301985 38.1176471,27.8636812 C38.2727825,28.0962118 38.4742103,28.2253347 38.6832126,28.2262303 Z" id="Logo-Monkeyhead" fill="#FFFFFE" mask="url(#mask-2)"></path>
                </g>
            </g>
        </g>
    </g>
</svg>