<?xml version="1.0" encoding="UTF-8"?>
<svg width="65px" height="65px" viewBox="0 0 65 65" version="1.1" xmlns="http://www.w3.org/2000/svg" xmlns:xlink="http://www.w3.org/1999/xlink">
    <!-- Generator: Sketch Beta 49.1 (51145) - http://www.bohemiancoding.com/sketch -->
    <title>benchmarks</title>
    <desc>Created with Sketch Beta.</desc>
    <defs></defs>
    <g id="CX" stroke="none" stroke-width="1" fill="none" fill-rule="evenodd">
        <g id="2-pt-lines-size-48px-and-up" transform="translate(-50.000000, -658.000000)" fill-rule="nonzero">
            <g id="benchmarks" transform="translate(51.000000, 658.000000)">
                <path d="M64,32 C64,49.6448 49.6448,64 32,64 C21.8602667,64 12.1728,59.0634667 6.0832,50.7936 C5.85493333,50.4928 5.79306667,50.0864 5.9392,49.7333333 C6.10453333,49.3344 6.48533333,49.0666667 6.91626667,49.0666667 L51.2,49.0666667 C51.7888,49.0666667 52.2666667,49.5445333 52.2666667,50.1333333 C52.2666667,50.7221333 51.7888,51.2 51.2,51.2 L9.12426667,51.2 C14.8384,57.9157333 23.2394667,61.8666667 32,61.8666667 C48.4682667,61.8666667 61.8666667,48.4682667 61.8666667,32 C61.8666667,15.5317333 48.4682667,2.13333333 32,2.13333333 C15.5317333,2.13333333 2.13333333,15.5317333 2.13333333,32 C2.13333333,36.736 3.2096,41.2661333 5.3312,45.4613333 C5.5968,45.9872 5.38666667,46.6282667 4.8608,46.8949333 C4.33386667,47.1605333 3.6928,46.9493333 3.4272,46.4234667 C1.15306667,41.9274667 0,37.0741333 0,32 C0,14.3552 14.3552,0 32,0 C49.6448,0 64,14.3552 64,32 M45.3258667,11.3770667 C45.0272,11.8858667 44.3744,12.0544 43.8666667,11.7568 C40.2762667,9.648 36.1728,8.53333333 32,8.53333333 C19.0602667,8.53333333 8.53333333,19.0602667 8.53333333,32 C8.53333333,37.2906667 9.8944,41.7365333 12.5781333,45.2149333 C12.9376,45.6810667 12.8512,46.3509333 12.3850667,46.7114667 C12.1909333,46.8608 11.9616,46.9333333 11.7333333,46.9333333 C11.4144,46.9333333 11.0986667,46.7904 10.8885333,46.5184 C7.952,42.7125333 6.4,37.6917333 6.4,32 C6.4,17.8848 17.8848,6.4 32,6.4 C36.5525333,6.4 41.0293333,7.616 44.9461333,9.9168 C45.4549333,10.2154667 45.6245333,10.8693333 45.3258667,11.3770667 M56.0170667,18.1333333 C56.3114667,18.6442667 56.1354667,19.296 55.6256,19.5904 L51.9317333,21.7226667 C51.7632,21.8197333 51.5797333,21.8656 51.3994667,21.8656 C51.0304,21.8656 50.672,21.6746667 50.4736,21.3322667 C50.1792,20.8224 50.3552,20.1696 50.8650667,19.8752 L54.5589333,17.7429333 C55.0698667,17.4474667 55.7216,17.6224 56.0170667,18.1333333 M58.7872,24.8224 C58.9397333,25.3909333 58.6026667,25.9754667 58.0330667,26.128 L53.9125333,27.232 C53.8208,27.2576 53.7269333,27.2693333 53.6362667,27.2693333 C53.1648,27.2693333 52.7338667,26.9546667 52.6058667,26.4778667 C52.4533333,25.9093333 52.7914667,25.3248 53.36,25.1722667 L57.4816,24.0672 C58.0490667,23.9114667 58.6346667,24.2528 58.7872,24.8224 M54.4,30.9333333 L58.6666667,30.9333333 C59.2554667,30.9333333 59.7333333,31.4112 59.7333333,32 C59.7333333,32.5888 59.2554667,33.0666667 58.6666667,33.0666667 L54.4,33.0666667 C53.8112,33.0666667 53.3333333,32.5888 53.3333333,32 C53.3333333,31.4112 53.8112,30.9333333 54.4,30.9333333 M32,34.1333333 C30.8234667,34.1333333 29.8666667,33.1765333 29.8666667,32 C29.8666667,30.8234667 30.8234667,29.8666667 32,29.8666667 C33.1765333,29.8666667 34.1333333,30.8234667 34.1333333,32 C34.1333333,33.1765333 33.1765333,34.1333333 32,34.1333333 M49.3792,13.1125333 L34.1536,28.3381333 C33.5189333,27.9626667 32.7893333,27.7333333 32,27.7333333 C29.6469333,27.7333333 27.7333333,29.6469333 27.7333333,32 C27.7333333,32.7893333 27.9626667,33.5189333 28.3381333,34.1536 L24.8458667,37.6458667 C24.4288,38.0629333 24.4288,38.7370667 24.8458667,39.1541333 C25.0538667,39.3621333 25.3269333,39.4666667 25.6,39.4666667 C25.8730667,39.4666667 26.1461333,39.3621333 26.3541333,39.1541333 L29.8464,35.6618667 C30.4810667,36.0373333 31.2106667,36.2666667 32,36.2666667 C34.3530667,36.2666667 36.2666667,34.3530667 36.2666667,32 C36.2666667,31.2106667 36.0373333,30.4810667 35.6618667,29.8464 L50.8874667,14.6208 C51.3045333,14.2037333 51.3045333,13.5296 50.8874667,13.1125333 C50.4704,12.6954667 49.7962667,12.6954667 49.3792,13.1125333" id="speedometer" fill="#00BF6F"></path>
                <g id="monkey-head" transform="translate(0.000000, 36.000000)">
                    <path d="M14,28 C21.7319865,28 28,21.7319865 28,14 C28,6.2680135 21.7319865,0 14,0 C6.2680135,0 0,6.2680135 0,14 C0,21.7319865 6.2680135,28 14,28 Z" id="Oval" stroke="#00BF6F" stroke-width="2" fill="#FFFFFF"></path>
                    <path d="M22.543855,16.4382617 C22.4079818,16.4382617 22.2841861,16.3857996 22.190962,16.3027659 C22.2226658,16.0291323 22.2438016,15.7524793 22.2471984,15.4712972 C22.3324966,15.414306 22.4344016,15.3795828 22.543855,15.3795828 C22.8348502,15.3795828 23.0730058,15.617361 23.0730058,15.9102433 C23.0730058,16.2038804 22.8348502,16.4382617 22.543855,16.4382617 Z M5.72463576,16.4371295 C5.43477287,16.4371295 5.19774956,16.2019933 5.19774956,15.9087336 C5.19774956,15.6158512 5.43477287,15.3795828 5.72463576,15.3795828 C5.83597633,15.3795828 5.93863611,15.414306 6.02393431,15.4712972 C6.02695371,15.7509696 6.04808955,16.0264904 6.08054815,16.2986142 C5.98505946,16.3846673 5.8620187,16.4371295 5.72463576,16.4371295 Z M22.0048912,13.3524296 C21.211165,10.2096062 18.5835276,7.80012089 15.3293637,7.31928062 C15.2806758,6.77088115 15.490147,5.91035067 16.8620893,5.08076909 L16.8217047,5 C16.8217047,5 14.5235599,5.72729923 14.0038448,7.16227155 C14.0264904,6.71388988 13.8634425,6.04093994 12.8655291,5.56236422 C12.8655291,5.56236422 12.7866471,5.58916144 12.8266542,5.6253943 C13.0244253,5.80806832 13.6551035,6.41798817 13.3871313,7.26719588 C9.92727037,7.58159144 7.0950683,10.0688265 6.26473187,13.3524296 C6.063564,13.3033643 5.85333791,13.2739251 5.63443103,13.2739251 C4.18247456,13.2739251 3,14.4533802 3,15.9102433 C3,17.363332 4.18247456,18.5450517 5.63443103,18.5450517 C5.97486897,18.5450517 6.2990776,18.4771151 6.59724387,18.360868 C6.82445411,18.9254968 7.1112976,19.4610638 7.45324524,19.9536042 L9.64986252,18.472586 C9.04296208,17.7113185 8.68931424,16.6171615 8.63005842,15.5279111 C8.56438635,14.3261878 8.85764608,13.1327679 9.624575,12.431511 C11.2067433,11.0852337 12.9285591,11.6985504 14.0076191,12.9893462 L14.2955948,12.9893462 C15.3754096,11.7242154 17.0779767,11.1361862 18.6469352,12.4688762 C19.4044284,13.1648491 19.6999527,14.3382654 19.642584,15.523382 C19.5908767,16.6232003 19.2345869,17.7350963 18.6537288,18.4835313 L20.8193972,19.9536042 C21.1590803,19.4595541 21.4478109,18.9254968 21.6735114,18.360868 C21.9713003,18.4771151 22.2951315,18.5450517 22.6348146,18.5450517 C24.0909227,18.5450517 25.2700005,17.363332 25.2700005,15.9087336 C25.2700005,14.4533802 24.0909227,13.2739251 22.6348146,13.2739251 C22.4189271,13.2739251 22.2064365,13.3033643 22.0048912,13.3524296 Z" id="Fill-1" fill="#00BF6F"></path>
                </g>
            </g>
        </g>
    </g>
</svg>