<?xml version="1.0" encoding="UTF-8"?>
<svg width="65px" height="65px" viewBox="0 0 65 65" version="1.1" xmlns="http://www.w3.org/2000/svg" xmlns:xlink="http://www.w3.org/1999/xlink">
    <!-- Generator: Sketch Beta 49.1 (51145) - http://www.bohemiancoding.com/sketch -->
    <title>41-care-about-peoples</title>
    <desc>Created with Sketch Beta.</desc>
    <defs></defs>
    <g id="Engage" stroke="none" stroke-width="1" fill="none" fill-rule="evenodd">
        <g id="2-pt-lines-size-48px-and-up" transform="translate(-380.000000, -282.000000)" stroke="#00BF6F" stroke-width="2">
            <g id="41-care-about-peoples" transform="translate(381.000000, 283.000000)">
                <g id="Group" transform="translate(38.425280, 20.129032)">
                    <path d="M11.1231073,24.1548387 L18.2014483,17.1096774 L18.2014483,16.1032258 C18.2014483,14.4365419 16.8424068,13.083871 15.1678736,13.083871 L14.156682,13.083871 L4.04476629,23.1483871 C2.02238315,25.1612903 2.02238315,28.1806452 2.02238315,28.1806452 L2.02238315,36.2322581 L13.1454905,36.2322581 L13.1454905,34.2193548 C13.1454905,34.2193548 13.1454905,32.2064516 15.1678736,30.1935484 L22.2462146,23.1483871 C24.2685978,21.1354839 24.2685978,19.1225806 24.2685978,19.1225806 L24.2685978,3.01935484 C24.2685978,1.35267097 22.9095563,0 21.235023,0 C19.5604898,0 18.2014483,1.35267097 18.2014483,3.01935484 L18.2014483,11.0709677" id="Shape"></path>
                    <path d="M0,43.2774194 L0,37.2387097 C0,36.6821419 0.452002633,36.2322581 1.01119157,36.2322581 L14.156682,36.2322581 C14.715871,36.2322581 15.1678736,36.6821419 15.1678736,37.2387097 L15.1678736,43.2774194" id="Shape"></path>
                </g>
                <g id="Group" transform="translate(0.000000, 20.129032)">
                    <path d="M13.1454905,24.1548387 L6.06714944,17.1096774 L6.06714944,16.1032258 C6.06714944,14.4365419 7.42619092,13.083871 9.10072416,13.083871 L10.1119157,13.083871 L20.2238315,23.1483871 C22.2462146,25.1612903 22.2462146,28.1806452 22.2462146,28.1806452 L22.2462146,36.2322581 L11.1231073,36.2322581 L11.1231073,34.2193548 C11.1231073,34.2193548 11.1231073,32.2064516 9.10072416,30.1935484 L2.02238315,23.1483871 C0,21.1354839 0,19.1225806 0,19.1225806 L0,3.01935484 C0,1.35267097 1.35904147,0 3.03357472,0 C4.70810797,0 6.06714944,1.35267097 6.06714944,3.01935484 L6.06714944,11.0709677" id="Shape"></path>
                    <path d="M9.10072416,43.2774194 L9.10072416,37.2387097 C9.10072416,36.6821419 9.55272679,36.2322581 10.1119157,36.2322581 L23.2574062,36.2322581 C23.8165951,36.2322581 24.2685978,36.6821419 24.2685978,37.2387097 L24.2685978,43.2774194" id="Shape"></path>
                </g>
                <path d="M10.1119157,21.1354839 C10.1119157,9.46265806 19.6191389,0 31.3469388,0 C43.0747386,0 52.5819618,9.46265806 52.5819618,21.1354839" id="Shape" stroke-linejoin="round"></path>
                <path d="M10.1119157,23.1483871 L10.1119157,25.1612903" id="Shape" stroke-linejoin="round"></path>
                <path d="M10.1119157,27.1741935 L10.1119157,29.1870968" id="Shape" stroke-linejoin="round"></path>
                <path d="M52.5819618,23.1483871 L52.5819618,25.1612903" id="Shape" stroke-linejoin="round"></path>
                <path d="M52.5819618,27.1741935 L52.5819618,29.1870968" id="Shape" stroke-linejoin="round"></path>
                <g id="Group" transform="translate(21.235023, 11.070968)" stroke-linejoin="round">
                    <path d="M5.05595787,5.03225806 C5.05595787,8.55483871 7.04092693,12.0774194 10.1119157,12.0774194 C13.1829045,12.0774194 15.1678736,8.55483871 15.1678736,5.03225806 C15.1678736,1.50967742 14.156682,0 10.1119157,0 C6.06714944,0 5.05595787,1.50967742 5.05595787,5.03225806 Z" id="Shape"></path>
                    <path d="M7.07834101,11.0709677 L0,15.0967742 C0,15.0967742 0,15.4429935 0,17.1096774 C0,18.7763613 1.01119157,20.1290323 2.02238315,20.1290323 L18.2014483,20.1290323 C19.2126399,20.1290323 20.2238315,18.7763613 20.2238315,17.1096774 C20.2238315,15.4429935 20.2238315,15.0967742 20.2238315,15.0967742 L13.1454905,11.0709677" id="Shape"></path>
                </g>
            </g>
        </g>
    </g>
</svg>