<?xml version="1.0" encoding="UTF-8"?>
<svg width="52px" height="64px" viewBox="0 0 52 64" version="1.1" xmlns="http://www.w3.org/2000/svg" xmlns:xlink="http://www.w3.org/1999/xlink">
    <!-- Generator: Sketch Beta 49.1 (51145) - http://www.bohemiancoding.com/sketch -->
    <title>custom-filters-blue</title>
    <desc>Created with Sketch Beta.</desc>
    <defs></defs>
    <g id="CX" stroke="none" stroke-width="1" fill="none" fill-rule="evenodd">
        <g id="2-pt-lines-size-48px-and-up" transform="translate(-177.000000, -285.000000)" fill="#00BF6F" fill-rule="nonzero">
            <g id="custom-filters-blue" transform="translate(177.000000, 285.000000)">
                <polygon id="Shape" points="2 12.764 2 11 0 11 0 13.236 9.106 31.447 10.894 30.553"></polygon>
                <polygon id="Shape" points="41.106 30.553 42.894 31.447 52 13.236 52 11 50 11 50 12.764"></polygon>
                <polygon id="Shape" points="25 49 25 63 27 63 27 49"></polygon>
                <polygon id="Shape" points="25 18 25 35 27 35 27 18"></polygon>
                <polygon id="Shape" points="21 18 21 35 23 35 23 18"></polygon>
                <polygon id="Shape" points="29 18 29 35 31 35 31 18"></polygon>
                <polygon id="Shape" points="25 0 25 12 27 12 27 0"></polygon>
                <polygon id="Shape" points="21 0 21 12 23 12 23 0"></polygon>
                <polygon id="Shape" points="17 0 17 12 19 12 19 0"></polygon>
                <polygon id="Shape" points="29 0 29 12 31 12 31 0"></polygon>
                <polygon id="Shape" points="33 0 33 12 35 12 35 0"></polygon>
                <path d="M23.8574929,57.4855042 L22.1425071,58.5144958 L25.1425071,63.5144958 C25.5309105,64.1618347 26.4690895,64.1618347 26.8574929,63.5144958 L29.8574929,58.5144958 L28.1425071,57.4855042 L26,61.0563494 L23.8574929,57.4855042 Z" id="Shape"></path>
                <polygon id="Shape" points="13 34 11 34 11 36.236 20.106 54.447 21.894 53.553 13 35.764"></polygon>
                <polygon id="Shape" points="30.106 53.553 31.894 54.447 41 36.236 41 34 39 34 39 35.764"></polygon>
                <path d="M26,39 C17.6646069,39 11,37.0958266 11,34 C11,30.9041734 17.6646069,29 26,29 C34.3353931,29 41,30.9041734 41,34 C41,37.0958266 34.3353931,39 26,39 Z M26,37 C29.676037,37 33.1123895,36.5847273 35.6247738,35.8669032 C37.827564,35.2375345 39,34.4455488 39,34 C39,33.5544512 37.827564,32.7624655 35.6247738,32.1330968 C33.1123895,31.4152727 29.676037,31 26,31 C22.323963,31 18.8876105,31.4152727 16.3752262,32.1330968 C14.172436,32.7624655 13,33.5544512 13,34 C13,34.4455488 14.172436,35.2375345 16.3752262,35.8669032 C18.8876105,36.5847273 22.323963,37 26,37 Z M26,16 C11.2118887,16 0,14.2060978 0,11 C0,7.79390218 11.2118887,6 26,6 C40.7881113,6 52,7.79390218 52,11 C52,14.2060978 40.7881113,16 26,16 Z M26,14 C32.6710276,14 38.9181579,13.5772299 43.519679,12.8409865 C45.7373567,12.4861581 47.4994329,12.0688435 48.6815624,11.6216646 C49.2331886,11.4129941 49.6372619,11.2051323 49.8761266,11.0183638 C49.9933253,10.9267262 50,10.9162102 50,11 C50,11.0837898 49.9933253,11.0732738 49.8761266,10.9816362 C49.6372619,10.7948677 49.2331886,10.5870059 48.6815624,10.3783354 C47.4994329,9.93115651 45.7373567,9.51384194 43.519679,9.15901351 C38.9181579,8.42277013 32.6710276,8 26,8 C19.3289724,8 13.0818421,8.42277013 8.48032097,9.15901351 C6.26264325,9.51384194 4.50056714,9.93115651 3.31843757,10.3783354 C2.76681139,10.5870059 2.36273807,10.7948677 2.12387336,10.9816362 C2.00667473,11.0732738 2,11.0837898 2,11 C2,10.9162102 2.00667473,10.9267262 2.12387336,11.0183638 C2.36273807,11.2051323 2.76681139,11.4129941 3.31843757,11.6216646 C4.50056714,12.0688435 6.26264325,12.4861581 8.48032097,12.8409865 C13.0818421,13.5772299 19.3289724,14 26,14 Z" id="Shape"></path>
                <polygon id="Shape" points="25 41 25 43 27 43 27 41"></polygon>
                <polygon id="Shape" points="25 45 25 47 27 47 27 45"></polygon>
            </g>
        </g>
    </g>
</svg>