<?xml version="1.0" encoding="UTF-8"?>
<svg width="64px" height="64px" viewBox="0 0 64 64" version="1.1" xmlns="http://www.w3.org/2000/svg" xmlns:xlink="http://www.w3.org/1999/xlink">
    <!-- Generator: Sketch Beta 49.1 (51145) - http://www.bohemiancoding.com/sketch -->
    <title>custom-attributes-blue</title>
    <desc>Created with Sketch Beta.</desc>
    <defs></defs>
    <g id="CX" stroke="none" stroke-width="1" fill="none" fill-rule="evenodd">
        <g id="2-pt-lines-size-48px-and-up" transform="translate(-53.000000, -285.000000)" fill="#00BF6F" fill-rule="nonzero">
            <g id="custom-attributes-blue" transform="translate(53.000000, 285.000000)">
                <path d="M5,6.5 C5,2.11562525 6.6925002,0 11,0 C15.3074998,0 17,2.11562525 17,6.5 C17,10.6579205 14.5504317,14 11,14 C7.44956835,14 5,10.6579205 5,6.5 Z M7,6.5 C7,9.66385169 8.71227376,12 11,12 C13.2877262,12 15,9.66385169 15,6.5 C15,3.13437475 14.0925002,2 11,2 C7.9074998,2 7,3.13437475 7,6.5 Z" id="Shape"></path>
                <path d="M20,16.1551388 C20,16.3259058 20,16.7024148 20,18 C20,19.1143162 19.3881991,20 19,20 L17,20 L17,22 L19,22 C20.6841012,22 22,20.0950171 22,18 L22,15.4196775 L14.4961389,11.1317569 L13.5038611,12.8682431 L20,16.5803225 L20,16.1551388 Z M2,16.5803225 L8.49613894,12.8682431 L7.50386106,11.1317569 L0,15.4196775 L0,18 C0,20.0950171 1.31589884,22 3,22 L5,22 L5,20 L3,20 C2.6118009,20 2,19.1143162 2,18 C2,16.7024148 2,16.3259058 2,16.1551388 L2,16.5803225 Z" id="Shape"></path>
                <g id="Group" transform="translate(0.000000, 21.000000)">
                    <path d="M5,6.5 C5,2.11562525 6.6925002,0 11,0 C15.3074998,0 17,2.11562525 17,6.5 C17,10.6579205 14.5504317,14 11,14 C7.44956835,14 5,10.6579205 5,6.5 Z M7,6.5 C7,9.66385169 8.71227376,12 11,12 C13.2877262,12 15,9.66385169 15,6.5 C15,3.13437475 14.0925002,2 11,2 C7.9074998,2 7,3.13437475 7,6.5 Z" id="Shape"></path>
                    <path d="M20,16.1551388 C20,16.3259058 20,16.7024148 20,18 C20,19.1143162 19.3881991,20 19,20 L17,20 L17,22 L19,22 C20.6841012,22 22,20.0950171 22,18 L22,15.4196775 L14.4961389,11.1317569 L13.5038611,12.8682431 L20,16.5803225 L20,16.1551388 Z M2,16.5803225 L8.49613894,12.8682431 L7.50386106,11.1317569 L0,15.4196775 L0,18 C0,20.0950171 1.31589884,22 3,22 L5,22 L5,20 L3,20 C2.6118009,20 2,19.1143162 2,18 C2,16.7024148 2,16.3259058 2,16.1551388 L2,16.5803225 Z" id="Shape"></path>
                </g>
                <g id="Group" transform="translate(0.000000, 42.000000)">
                    <path d="M5,6.5 C5,2.11562525 6.6925002,0 11,0 C15.3074998,0 17,2.11562525 17,6.5 C17,10.6579205 14.5504317,14 11,14 C7.44956835,14 5,10.6579205 5,6.5 Z M7,6.5 C7,9.66385169 8.71227376,12 11,12 C13.2877262,12 15,9.66385169 15,6.5 C15,3.13437475 14.0925002,2 11,2 C7.9074998,2 7,3.13437475 7,6.5 Z" id="Shape"></path>
                    <path d="M20,16.1551388 C20,16.3259058 20,16.7024148 20,18 C20,19.1143162 19.3881991,20 19,20 L3,20 C2.6118009,20 2,19.1143162 2,18 C2,16.7024148 2,16.3259058 2,16.1551388 L8.49613894,12.8682431 L7.50386106,11.1317569 L0,15.4196775 L0,18 C0,20.0950171 1.31589884,22 3,22 L19,22 C20.6841012,22 22,20.0950171 22,18 L22,15.4196775 L14.4961389,11.1317569 L13.5038611,12.8682431 L20,16.5803225 L20,16.1551388 Z" id="Shape"></path>
                </g>
                <polygon id="Shape" points="62 56 24 56 24 58 64 58 64 48 19 48 19 50 62 50"></polygon>
                <polygon id="Shape" points="62 35 24 35 24 37 64 37 64 27 19 27 19 29 62 29"></polygon>
                <polygon id="Shape" points="62 14 24 14 24 16 64 16 64 6 19 6 19 8 62 8"></polygon>
                <polygon id="Shape" points="24 12 26 12 26 10 24 10"></polygon>
                <polygon id="Shape" points="28 12 30 12 30 10 28 10"></polygon>
                <polygon id="Shape" points="32 12 34 12 34 10 32 10"></polygon>
                <polygon id="Shape" points="36 12 38 12 38 10 36 10"></polygon>
                <polygon id="Shape" points="40 12 42 12 42 10 40 10"></polygon>
                <polygon id="Shape" points="44 12 46 12 46 10 44 10"></polygon>
                <polygon id="Shape" points="24 33 26 33 26 31 24 31"></polygon>
                <polygon id="Shape" points="28 33 30 33 30 31 28 31"></polygon>
                <polygon id="Shape" points="32 33 34 33 34 31 32 31"></polygon>
                <polygon id="Shape" points="36 33 38 33 38 31 36 31"></polygon>
                <polygon id="Shape" points="40 33 42 33 42 31 40 31"></polygon>
                <polygon id="Shape" points="44 33 46 33 46 31 44 31"></polygon>
                <polygon id="Shape" points="48 33 50 33 50 31 48 31"></polygon>
                <polygon id="Shape" points="52 33 54 33 54 31 52 31"></polygon>
                <polygon id="Shape" points="24 54 26 54 26 52 24 52"></polygon>
                <polygon id="Shape" points="28 54 30 54 30 52 28 52"></polygon>
                <polygon id="Shape" points="32 54 34 54 34 52 32 52"></polygon>
                <polygon id="Shape" points="36 54 38 54 38 52 36 52"></polygon>
                <polygon id="Shape" points="40 54 42 54 42 52 40 52"></polygon>
                <polygon id="Shape" points="24 62 32 62 32 60 24 60"></polygon>
                <polygon id="Shape" points="34 62 54 62 54 60 34 60"></polygon>
                <polygon id="Shape" points="24 41 42 41 42 39 24 39"></polygon>
                <polygon id="Shape" points="44 41 54 41 54 39 44 39"></polygon>
                <polygon id="Shape" points="40 20 44 20 44 18 40 18"></polygon>
                <polygon id="Shape" points="24 20 38 20 38 18 24 18"></polygon>
                <polygon id="Shape" points="46 20 54 20 54 18 46 18"></polygon>
            </g>
        </g>
    </g>
</svg>