<?xml version="1.0" encoding="UTF-8"?>
<svg width="62px" height="48px" viewBox="0 0 62 48" version="1.1" xmlns="http://www.w3.org/2000/svg" xmlns:xlink="http://www.w3.org/1999/xlink">
    <!-- Generator: Sketch Beta 49.1 (51145) - http://www.bohemiancoding.com/sketch -->
    <title>enhanced</title>
    <desc>Created with Sketch Beta.</desc>
    <defs></defs>
    <g id="CX" stroke="none" stroke-width="1" fill="none" fill-rule="evenodd">
        <g id="2-pt-lines-size-48px-and-up" transform="translate(-54.000000, -917.000000)" fill="#00BF6F" fill-rule="nonzero">
            <g id="enhanced" transform="translate(54.000000, 917.000000)">
                <polygon id="Shape" points="4 34 10 34 10 32 4 32"></polygon>
                <polygon id="Shape" points="12 34 18 34 18 32 12 32"></polygon>
                <polygon id="Shape" points="4 30 10 30 10 28 4 28"></polygon>
                <polygon id="Shape" points="12 30 18 30 18 28 12 28"></polygon>
                <polygon id="Shape" points="4 26 10 26 10 24 4 24"></polygon>
                <polygon id="Shape" points="12 26 18 26 18 24 12 24"></polygon>
                <polygon id="Shape" points="4 22 20 22 20 20 4 20"></polygon>
                <polygon id="Shape-Copy" points="24 22 39 22 39 20 24 20"></polygon>
                <polygon id="Shape" points="4 18 10 18 10 16 4 16"></polygon>
                <polygon id="Shape" points="12 18 18 18 18 16 12 16"></polygon>
                <polygon id="Shape-Copy-9" points="24 34 30 34 30 32 24 32"></polygon>
                <polygon id="Shape-Copy-8" points="32 34 38 34 38 32 32 32"></polygon>
                <polygon id="Shape-Copy-7" points="24 30 30 30 30 28 24 28"></polygon>
                <polygon id="Shape-Copy-6" points="32 30 38 30 38 28 32 28"></polygon>
                <polygon id="Shape-Copy-5" points="24 26 30 26 30 24 24 24"></polygon>
                <polygon id="Shape-Copy-4" points="32 26 38 26 38 24 32 24"></polygon>
                <polygon id="Shape-Copy-3" points="24 18 30 18 30 16 24 16"></polygon>
                <polygon id="Shape-Copy-2" points="32 18 38 18 38 16 32 16"></polygon>
                <polygon id="Shape" points="44 34 50 34 50 32 44 32"></polygon>
                <polygon id="Shape" points="52 34 58 34 58 32 52 32"></polygon>
                <polygon id="Shape" points="44 30 50 30 50 28 44 28"></polygon>
                <polygon id="Shape" points="52 30 58 30 58 28 52 28"></polygon>
                <polygon id="Shape" points="44 26 58 26 58 24 44 24"></polygon>
                <polygon id="Shape" points="44 22 50 22 50 20 44 20"></polygon>
                <polygon id="Shape" points="52 22 58 22 58 20 52 20"></polygon>
                <polygon id="Shape" points="44 18 50 18 50 16 44 16"></polygon>
                <polygon id="Shape" points="52 18 58 18 58 16 52 16"></polygon>
                <polygon id="Shape" points="44 14 50 14 50 12 44 12"></polygon>
                <polygon id="Shape" points="52 14 58 14 58 12 52 12"></polygon>
                <polygon id="Shape" points="44 10 50 10 50 8 44 8"></polygon>
                <polygon id="Shape" points="52 10 58 10 58 8 52 8"></polygon>
                <path d="M6,10 L6,12 L16,12 L16,10 L6,10 Z M18,8 L18,14 L4,14 L4,8 L18,8 Z" id="Rectangle-path"></path>
                <path d="M46,2 L46,4 L56,4 L56,2 L46,2 Z M58,0 L58,6 L44,6 L44,0 L58,0 Z" id="Rectangle-path"></path>
                <polygon id="Shape" points="2 46 2 14 41.0027313 14 41.0027313 12 0 12 0 48 5 48 5 46"></polygon>
                <polygon id="Shape" points="60 46 57 46 57 48 62 48 62 4 41 4 41 6 60 6"></polygon>
                <rect id="Rectangle" x="41" y="6" width="2" height="28"></rect>
                <path d="M6,46 L56,46 L56,38 L6,38 L6,46 Z M58,36 L58,48 L4,48 L4,36 L58,36 Z" id="Rectangle-path"></path>
                <polygon id="Shape" points="20 40 20 47 22 47 22 40"></polygon>
                <polygon id="Shape" points="40 40 40 47 42 47 42 40"></polygon>
                <polygon id="Shape" points="5 44 57 44 57 42 5 42"></polygon>
            </g>
        </g>
    </g>
</svg>