<?xml version="1.0" encoding="UTF-8"?>
<svg width="43px" height="40px" viewBox="0 0 43 40" version="1.1" xmlns="http://www.w3.org/2000/svg" xmlns:xlink="http://www.w3.org/1999/xlink">
    <!-- Generator: Sketch Beta 49.1 (51145) - http://www.bohemiancoding.com/sketch -->
    <title>essential</title>
    <desc>Created with Sketch Beta.</desc>
    <defs></defs>
    <g id="CX" stroke="none" stroke-width="1" fill="none" fill-rule="evenodd">
        <g id="2-pt-lines-size-48px-and-up" transform="translate(-172.000000, -917.000000)" fill-rule="nonzero">
            <g id="essential" transform="translate(172.000000, 917.000000)">
                <polygon id="Shape-Copy-10" fill="#00BF6F" points="4 26 10 26 10 24 4 24"></polygon>
                <polygon id="Shape-Copy-11" fill="#00BF6F" points="12 26 18 26 18 24 12 24"></polygon>
                <polygon id="Shape-Copy-12" fill="#00BF6F" points="4 22 10 22 10 20 4 20"></polygon>
                <polygon id="Shape-Copy-13" fill="#00BF6F" points="12 22 18 22 18 20 12 20"></polygon>
                <polygon id="Shape-Copy-14" fill="#00BF6F" points="4 18 10 18 10 16 4 16"></polygon>
                <polygon id="Shape-Copy-15" fill="#00BF6F" points="12 18 18 18 18 16 12 16"></polygon>
                <polygon id="Shape-Copy-16" fill="#00BF6F" points="4 14 18 14 18 12 4 12"></polygon>
                <polygon id="Shape-Copy-17" fill="#00BF6F" points="24 14 38 14 38 12 24 12"></polygon>
                <polygon id="Shape-Copy-18" fill="#00BF6F" points="4 10 10 10 10 8 4 8"></polygon>
                <polygon id="Shape-Copy-19" fill="#00BF6F" points="12 10 18 10 18 8 12 8"></polygon>
                <polygon id="Shape-Copy-20" fill="#00BF6F" points="24 26 30 26 30 24 24 24"></polygon>
                <polygon id="Shape-Copy-21" fill="#00BF6F" points="32 26 38 26 38 24 32 24"></polygon>
                <polygon id="Shape-Copy-22" fill="#00BF6F" points="24 22 30 22 30 20 24 20"></polygon>
                <polygon id="Shape-Copy-23" fill="#00BF6F" points="32 22 38 22 38 20 32 20"></polygon>
                <polygon id="Shape-Copy-24" fill="#00BF6F" points="24 18 30 18 30 16 24 16"></polygon>
                <polygon id="Shape-Copy-25" fill="#00BF6F" points="32 18 38 18 38 16 32 16"></polygon>
                <polygon id="Shape-Copy-26" fill="#00BF6F" points="24 10 30 10 30 8 24 8"></polygon>
                <polygon id="Shape-Copy-27" fill="#00BF6F" points="32 10 38 10 38 8 32 8"></polygon>
                <path d="M6,2 L6,4 L16,4 L16,2 L6,2 Z M18,0 L18,6 L4,6 L4,0 L18,0 Z" id="Rectangle-path-Copy" fill="#00BF6F"></path>
                <polygon id="Shape-Copy-41" fill="#00BF6F" points="2 38 2 6 41.0027313 6 41.0027313 4 0 4 0 40 5 40 5 38"></polygon>
                <rect id="Rectangle" fill="#00BF6F" x="41" y="4" width="2" height="34"></rect>
                <polygon id="Shape-Copy-43" fill="#00BF6F" points="20 32 20 39 22 39 22 32"></polygon>
                <rect id="Rectangle-8" fill="#00BF6F" x="4" y="28" width="2" height="10"></rect>
                <rect id="Rectangle-8-Copy-2" fill="#00BF6F" x="37" y="28" width="2" height="10"></rect>
                <rect id="Rectangle-8-Copy-3" fill="#00A8FF" x="20" y="29" width="2" height="1"></rect>
                <rect id="Rectangle-8-Copy" fill="#00BF6F" x="6" y="28" width="32" height="2"></rect>
                <rect id="Rectangle-8-Copy-5" fill="#00BF6F" x="4" y="38" width="39" height="2"></rect>
                <rect id="Rectangle-8-Copy-4" fill="#00BF6F" x="6" y="34" width="32" height="2"></rect>
            </g>
        </g>
    </g>
</svg>