<?xml version="1.0" encoding="UTF-8"?>
<svg width="65px" height="45px" viewBox="0 0 65 45" version="1.1" xmlns="http://www.w3.org/2000/svg" xmlns:xlink="http://www.w3.org/1999/xlink">
    <!-- Generator: Sketch Beta 49.1 (51145) - http://www.bohemiancoding.com/sketch -->
    <title>10-future-possibility</title>
    <desc>Created with Sketch Beta.</desc>
    <defs></defs>
    <g id="Engage" stroke="none" stroke-width="1" fill="none" fill-rule="evenodd">
        <g id="2-pt-lines-size-48px-and-up" transform="translate(-265.000000, -483.000000)" stroke="#00BF6F" stroke-width="2">
            <g id="10-future-possibility" transform="translate(265.000000, 484.000000)">
                <g id="Group" transform="translate(0.000000, 18.285714)">
                    <path d="M13.2063492,2.03174603 L22.3492063,2.03174603 L33.5238095,6.0952381 L42.6666667,6.0952381 C44.3489524,6.0952381 45.7142857,7.45955556 45.7142857,9.14285714 C45.7142857,10.8261587 44.3489524,12.1904762 42.6666667,12.1904762 L31.4920635,12.1904762 C29.8097778,12.1904762 28.4444444,13.5547937 28.4444444,15.2380952" id="Shape"></path>
                    <path d="M44.6984127,11.1746032 L60.952381,6.0952381 C62.6346667,6.0952381 64,7.45955556 64,9.14285714 C64,10.1556825 62.984127,11.1746032 62.984127,11.1746032 L37.5873016,24.3809524 L35.5555556,24.3809524 L18.2857143,18.2857143 L13.2063492,18.2857143" id="Shape"></path>
                    <path d="M10.1587302,16.2539683 L8.12698413,16.2539683" id="Shape"></path>
                    <path d="M6.0952381,16.2539683 L4.06349206,16.2539683" id="Shape"></path>
                    <path d="M0,0 L12.1904762,0 C12.752254,0 13.2063492,0.454095238 13.2063492,1.01587302 L13.2063492,19.3015873 C13.2063492,19.8633651 12.752254,20.3174603 12.1904762,20.3174603 L0,20.3174603" id="Shape"></path>
                </g>
                <polygon id="Shape" stroke-linejoin="round" points="64 8.12698413 17.2698413 8.12698413 21.3333333 0 37.5873016 0 64 5.07936508"></polygon>
                <polyline id="Shape" stroke-linejoin="round" points="17.2698413 8.12698413 13.2063492 0 18.2857143 0"></polyline>
                <polyline id="Shape" stroke-linejoin="round" points="64 8.12698413 34.5396825 14.2222222 24.3809524 14.2222222 22.3492063 8.12698413"></polyline>
                <path d="M10.1587302,0 L0,0" id="Shape" stroke-linejoin="round"></path>
                <path d="M4.06349206,4.06349206 L11.1746032,4.06349206" id="Shape" stroke-linejoin="round"></path>
                <path d="M8.12698413,8.12698413 L12.1904762,8.12698413" id="Shape" stroke-linejoin="round"></path>
                <path d="M6.0952381,8.12698413 L0,8.12698413" id="Shape" stroke-linejoin="round"></path>
            </g>
        </g>
    </g>
</svg>