<?xml version="1.0" encoding="UTF-8"?>
<svg width="64px" height="64px" viewBox="0 0 64 64" version="1.1" xmlns="http://www.w3.org/2000/svg" xmlns:xlink="http://www.w3.org/1999/xlink">
    <!-- Generator: Sketch Beta 49.1 (51145) - http://www.bohemiancoding.com/sketch -->
    <title>03-goals-achieve</title>
    <desc>Created with Sketch Beta.</desc>
    <defs></defs>
    <g id="Engage" stroke="none" stroke-width="1" fill="none" fill-rule="evenodd" stroke-linejoin="round">
        <g id="2-pt-lines-size-48px-and-up" transform="translate(-265.000000, -858.000000)" stroke="#00BF6F" stroke-width="2">
            <g id="03-goals-achieve" transform="translate(265.000000, 859.000000)">
                <rect id="Rectangle-path" x="4.92544493" y="57.4390716" width="11.8210678" height="3.96131528"></rect>
                <ellipse id="Oval" cx="32.5079365" cy="20.7969052" rx="9.85088985" ry="9.9032882"></ellipse>
                <polyline id="Shape" points="8.86580087 4.9516441 46.2991823 4.9516441 62.0606061 20.7969052 46.2991823 36.6421663 8.86580087 36.6421663"></polyline>
                <polyline id="Shape" points="37.4333814 17.8259188 31.5228475 23.7678917 27.5824916 19.8065764"></polyline>
                <path d="M15.7614238,20.7969052 L17.7316017,20.7969052" id="Shape"></path>
                <path d="M15.7614238,16.8355899 L17.7316017,16.8355899" id="Shape"></path>
                <path d="M15.7614238,24.7582205 L17.7316017,24.7582205" id="Shape"></path>
                <path d="M12.8061568,4.9516441 L12.8061568,1.98065764 C12.8061568,0.887334623 11.9235171,0 10.8359788,0 C9.74745551,0 8.86580087,0.887334623 8.86580087,1.98065764 L8.86580087,57.4390716 L12.8061568,57.4390716 L12.8061568,36.6421663" id="Shape"></path>
                <path d="M12.8061568,33.6711799 L12.8061568,7.92263056" id="Shape"></path>
                <path d="M0,61.4003868 L63.045695,61.4003868" id="Shape"></path>
            </g>
        </g>
    </g>
</svg>