<?xml version="1.0" encoding="UTF-8"?>
<svg width="64px" height="64px" viewBox="0 0 64 64" version="1.1" xmlns="http://www.w3.org/2000/svg" xmlns:xlink="http://www.w3.org/1999/xlink">
    <!-- Generator: Sketch Beta 49.1 (51145) - http://www.bohemiancoding.com/sketch -->
    <title>import-blue</title>
    <desc>Created with Sketch Beta.</desc>
    <defs></defs>
    <g id="CX" stroke="none" stroke-width="1" fill="none" fill-rule="evenodd">
        <g id="2-pt-lines-size-48px-and-up" transform="translate(-413.000000, -285.000000)" fill="#00BF6F" fill-rule="nonzero">
            <g id="import-blue" transform="translate(413.000000, 285.000000)">
                <polygon id="Shape" points="24 25 26 25 26 23 24 23"></polygon>
                <polygon id="Shape" points="28 25 30 25 30 23 28 23"></polygon>
                <polygon id="Shape" points="32 25 34 25 34 23 32 23"></polygon>
                <polygon id="Shape" points="30 41 32 41 32 39 30 39"></polygon>
                <polygon id="Shape" points="34 41 36 41 36 39 34 39"></polygon>
                <polygon id="Shape" points="38 41 40 41 40 39 38 39"></polygon>
                <polygon id="Shape" points="36 25 50 25 50 23 36 23"></polygon>
                <polygon id="Shape" points="14 41 28 41 28 39 14 39"></polygon>
                <path d="M14,49.5857864 L2.41421356,38 L14,26.4142136 L14,32 C14,32.5522847 14.4477153,33 15,33 L48,33 L48,40 C48,40.8909049 49.0771419,41.3370716 49.7071068,40.7071068 L63.7071068,26.7071068 C64.0976311,26.3165825 64.0976311,25.6834175 63.7071068,25.2928932 L49.7071068,11.2928932 C49.0771419,10.6629284 48,11.1090951 48,12 L48,20 L50,20 L50,14.4142136 L61.5857864,26 L50,37.5857864 L50,32 C50,31.4477153 49.5522847,31 49,31 L16,31 L16,24 C16,23.1090951 14.9228581,22.6629284 14.2928932,23.2928932 L0.292893219,37.2928932 C-0.0976310729,37.6834175 -0.0976310729,38.3165825 0.292893219,38.7071068 L14.2928932,52.7071068 C14.9228581,53.3370716 16,52.8909049 16,52 L16,44 L14,44 L14,49.5857864 Z" id="Shape"></path>
                <path d="M15.046275,58.0405073 L15.997145,58 L16,58.074 L15.0491299,58.1145073 L15,58.1145073 L15.046275,58.0405073 Z M14.4503336,58.7617189 L14.9508398,58 L14.0025135,58 L14.0025135,56 L16.002413,56 L16.002413,58 C16.002413,58.7586175 15.3463527,59.0900692 14.7857014,58.979128 C14.3807252,58.8989917 14.0255301,58.5880311 14.0033343,58.0405073 C13.9986359,57.9246102 13.9994149,57.8835184 14.0025135,57.8433214 C14.0595759,57.1030774 14.9032966,56.6662304 15.5485932,57.0902811 C15.699078,57.1891708 15.8503569,57.2866514 16.002413,57.3827152 C20.7497023,60.3818884 26.254513,62 32.0016087,62 C48.569491,62 62.0001005,48.5687153 62.0001005,32 L64,32 C64,49.6732847 49.6740049,64 32.0016087,64 C25.8133323,64 19.883679,62.2391221 14.7857014,58.979128 C14.6735073,58.9073835 14.561716,58.8349129 14.4503336,58.7617189 Z M48.953725,6.074 L48.002855,6.11450727 L48,6.04050727 L48.9508701,6 L49,6 L48.953725,6.074 Z M49.2142986,5.02087197 C49.3264927,5.09261652 49.438284,5.16508715 49.5496664,5.23828105 L49.0491602,6 L49.9974865,6 L49.9974865,8 L47.997587,8 L47.997587,6 C47.997587,5.24138247 48.6536473,4.90993079 49.2142986,5.02087197 C49.6192748,5.10100831 49.9744699,5.41196895 49.9966657,5.95949273 C50.0013641,6.07538983 50.0005851,6.11648156 49.9974865,6.15667864 C49.9404241,6.89692263 49.0967034,7.33376964 48.4514068,6.90971895 C48.300922,6.81082924 48.1496431,6.71334861 47.997587,6.61728484 C43.2502977,3.61811163 37.745487,2 31.9983913,2 C15.430509,2 1.99989946,15.4312847 1.99989946,32 L0,32 C0,14.3267153 14.3259951,0 31.9983913,0 C38.1866677,0 44.116321,1.76087793 49.2142986,5.02087197 Z" id="Shape"></path>
            </g>
        </g>
    </g>
</svg>