<?xml version="1.0" encoding="UTF-8"?>
<svg width="64px" height="64px" viewBox="0 0 64 64" version="1.1" xmlns="http://www.w3.org/2000/svg" xmlns:xlink="http://www.w3.org/1999/xlink">
    <!-- Generator: Sketch Beta 49.1 (51145) - http://www.bohemiancoding.com/sketch -->
    <title>integrations-blue</title>
    <desc>Created with Sketch Beta.</desc>
    <defs></defs>
    <g id="CX" stroke="none" stroke-width="1" fill="none" fill-rule="evenodd">
        <g id="2-pt-lines-size-48px-and-up" transform="translate(-537.000000, -285.000000)" fill="#00BF6F" fill-rule="nonzero">
            <g id="integrations-blue" transform="translate(537.000000, 285.000000)">
                <path d="M19,29 L20,30 L20,29 L19.5012266,29.8653161 C19.5781071,29.8207837 19.6539099,29.7752103 19.7286155,29.7286155 C19.8207582,29.6711451 19.9112318,29.6121208 20,29.5515798 C20.2520654,29.379668 20.4903795,29.1955258 20.7141103,29 C22.1627563,27.7339801 23,25.9907005 23,24 C23,20.1347153 19.8652847,17 16,17 C12.1340348,17 9,20.1343956 9,24 C9,25.9907005 9.83724367,27.7339801 11.2858897,29 C11.5096205,29.1955258 11.7479346,29.379668 12,29.5515798 C12.0887682,29.6121208 12.1792418,29.6711451 12.2713845,29.7286155 C12.3460901,29.7752103 12.4218929,29.8207837 12.4987734,29.8653161 L12,29 L12,30 L13,29 L2,29 L2,4 C2,2.89628475 2.89628475,2 4,2 L31,2 L31,0 L4,0 C1.79171525,0 0,1.79171525 0,4 L0,31 L14,31 L14,28.423594 L13.5012266,28.1346839 C11.9125731,27.2144706 11,25.7523585 11,24 C11,21.2389136 13.2386559,19 16,19 C18.7607153,19 21,21.2392847 21,24 C21,25.7523585 20.0874269,27.2144706 18.4987734,28.1346839 L18,28.423594 L18,31 L31,31 L31,29 L19,29 Z M29,45 L30,44 L29,44 L29.8653161,44.4987734 C29.8207837,44.4218929 29.7752103,44.3460901 29.7286155,44.2713845 C29.6711451,44.1792418 29.6121208,44.0887682 29.5515798,44 C29.379668,43.7479346 29.1955258,43.5096205 29,43.2858897 C27.7339801,41.8372437 25.9907005,41 24,41 C20.1340348,41 17,44.1343956 17,48 C17,51.8656044 20.1340348,55 24,55 C25.9907005,55 27.7339801,54.1627563 29,52.7141103 C29.1955258,52.4903795 29.379668,52.2520654 29.5515798,52 C29.6121208,51.9112318 29.6711451,51.8207582 29.7286155,51.7286155 C29.7752103,51.6539099 29.8207837,51.5781071 29.8653161,51.5012266 L29,52 L30,52 L29,51 L29,62 L4,62 C2.89628475,62 2,61.1037153 2,60 L2,33 L0,33 L0,60 C0,62.2082847 1.79171525,64 4,64 L31,64 L31,50 L28.423594,50 L28.1346839,50.4987734 C27.2144706,52.0874269 25.7523585,53 24,53 C21.2386559,53 19,50.7610864 19,48 C19,45.2389136 21.2386559,43 24,43 C25.7523585,43 27.2144706,43.9125731 28.1346839,45.5012266 L28.423594,46 L31,46 L31,33 L29,33 L29,45 Z M45,35 L44,34 L44,35 L44.5393461,34.1124202 C44.445424,34.1611657 44.3532898,34.2113507 44.2629534,34.2629534 C44.1735378,34.31403 44.0858835,34.3664955 44,34.4203288 C43.7153069,34.5987795 43.4500721,34.7922597 43.2046426,35 C41.758524,36.2240464 41,37.9431757 41,40 C41,43.8656044 44.1340348,47 48,47 C51.8652847,47 55,43.8652847 55,40 C55,37.9431757 54.241476,36.2240464 52.7953574,35 C52.5499279,34.7922597 52.2846931,34.5987795 52,34.4203288 C51.9141165,34.3664955 51.8264622,34.31403 51.7370466,34.2629534 C51.6467102,34.2113507 51.554576,34.1611657 51.4606539,34.1124202 L52,35 L52,34 L51,35 L62,35 L62,60 C62,61.1037153 61.1037153,62 60,62 L33,62 L33,64 L60,64 C62.2082847,64 64,62.2082847 64,60 L64,33 L50,33 L50,35.6076592 L50.5393461,35.8875798 C52.1800793,36.7391204 53,38.1210967 53,40 C53,42.7607153 50.7607153,45 48,45 C45.2386559,45 43,42.7610864 43,40 C43,38.1210967 43.8199207,36.7391204 45.4606539,35.8875798 L46,35.6076592 L46,33 L33,33 L33,35 L45,35 Z M35,19 L34,20 L35,20 L34.1346839,19.5012266 C34.1792163,19.5781071 34.2247897,19.6539099 34.2713845,19.7286155 C34.3288549,19.8207582 34.3878792,19.9112318 34.4484202,20 C34.620332,20.2520654 34.8044742,20.4903795 35,20.7141103 C36.2660199,22.1627563 38.0092995,23 40,23 C43.8656044,23 47,19.8659652 47,16 C47,12.1340348 43.8656044,9 40,9 C38.0092995,9 36.2660199,9.83724367 35,11.2858897 C34.8044742,11.5096205 34.620332,11.7479346 34.4484202,12 C34.3878792,12.0887682 34.3288549,12.1792418 34.2713845,12.2713845 C34.2247897,12.3460901 34.1792163,12.4218929 34.1346839,12.4987734 L35,12 L34,12 L35,13 L35,2 L60,2 C61.1037153,2 62,2.89628475 62,4 L62,31 L64,31 L64,4 C64,1.79171525 62.2082847,0 60,0 L33,0 L33,14 L35.576406,14 L35.8653161,13.5012266 C36.7855294,11.9125731 38.2476415,11 40,11 C42.7610864,11 45,13.2386559 45,16 C45,18.7613441 42.7610864,21 40,21 C38.2476415,21 36.7855294,20.0874269 35.8653161,18.4987734 L35.576406,18 L33,18 L33,31 L35,31 L35,19 Z" id="Shape"></path>
                <polygon id="Shape" points="31 4 29 4 29 6 31 6"></polygon>
                <polygon id="Shape" points="27 4 25 4 25 6 27 6"></polygon>
                <polygon id="Shape" points="23 4 21 4 21 6 23 6"></polygon>
                <polygon id="Shape" points="43 58 41 58 41 60 43 60"></polygon>
                <polygon id="Shape" points="39 58 37 58 37 60 39 60"></polygon>
                <polygon id="Shape" points="35 58 33 58 33 60 35 60"></polygon>
                <polygon id="Shape" points="4 33 4 35 6 35 6 33"></polygon>
                <polygon id="Shape" points="4 37 4 39 6 39 6 37"></polygon>
                <polygon id="Shape" points="4 41 4 43 6 43 6 41"></polygon>
                <polygon id="Shape" points="58 21 58 23 60 23 60 21"></polygon>
                <polygon id="Shape" points="58 25 58 27 60 27 60 25"></polygon>
                <polygon id="Shape" points="58 29 58 31 60 31 60 29"></polygon>
            </g>
        </g>
    </g>
</svg>