<?xml version="1.0" encoding="UTF-8"?>
<svg width="58px" height="64px" viewBox="0 0 58 64" version="1.1" xmlns="http://www.w3.org/2000/svg" xmlns:xlink="http://www.w3.org/1999/xlink">
    <!-- Generator: Sketch Beta 49.1 (51145) - http://www.bohemiancoding.com/sketch -->
    <title>lists-blue</title>
    <desc>Created with Sketch Beta.</desc>
    <defs></defs>
    <g id="CX" stroke="none" stroke-width="1" fill="none" fill-rule="evenodd">
        <g id="2-pt-lines-size-48px-and-up" transform="translate(-170.000000, -409.000000)" fill="#00BF6F" fill-rule="nonzero">
            <g id="lists-blue" transform="translate(170.000000, 409.000000)">
                <polygon id="Shape" points="2 2 24.586 2 32 9.414 32 16 34 16 34 8.586 25.414 0 0 0 0 46 22 46 22 44 2 44"></polygon>
                <polygon id="Shape" points="28 12 28 16 30 16 30 12"></polygon>
                <polygon id="Shape" points="6 40 6 6 22 6 22 4 4 4 4 42 22 42 22 40"></polygon>
                <path d="M56,62 L56,27.4142136 L48.5857864,20 L26,20 L26,62 L56,62 Z M24,64 L24,18 L49.4142136,18 L58,26.5857864 L58,64 L24,64 Z M36,6 L45,6 C45.5517153,6 46,6.44828475 46,7 L46,16 L48,16 L48,7 C48,5.34371525 46.6562847,4 45,4 L36,4 L36,6 Z M22,58 L13,58 C12.4477074,58 12,57.552138 12,57 L12,48 L10,48 L10,57 C10,58.6565529 11.3429832,60 13,60 L22,60 L22,58 Z" id="Shape"></path>
                <polygon id="Shape" points="30 26 44 26 44 24 30 24"></polygon>
                <polygon id="Shape" points="30 30 44 30 44 28 30 28"></polygon>
                <polygon id="Shape" points="30 34 52 34 52 32 30 32"></polygon>
                <polygon id="Shape" points="30 38 52 38 52 36 30 36"></polygon>
                <polygon id="Shape" points="30 42 52 42 52 40 30 40"></polygon>
                <polygon id="Shape" points="30 46 52 46 52 44 30 44"></polygon>
                <polygon id="Shape" points="30 50 52 50 52 48 30 48"></polygon>
                <polygon id="Shape" points="30 54 52 54 52 52 30 52"></polygon>
                <polygon id="Shape" points="30 58 52 58 52 56 30 56"></polygon>
                <polygon id="Shape" points="26 8 26 1 24 1 24 10 33 10 33 8"></polygon>
                <polygon id="Shape" points="50 26 50 19 48 19 48 28 57 28 57 26"></polygon>
            </g>
        </g>
    </g>
</svg>