<?xml version="1.0" encoding="UTF-8"?>
<svg width="64px" height="71px" viewBox="0 0 64 71" version="1.1" xmlns="http://www.w3.org/2000/svg" xmlns:xlink="http://www.w3.org/1999/xlink">
    <!-- Generator: Sketch Beta 49.1 (51145) - http://www.bohemiancoding.com/sketch -->
    <title>45-long-term-vision</title>
    <desc>Created with Sketch Beta.</desc>
    <defs></defs>
    <g id="Engage" stroke="none" stroke-width="1" fill="none" fill-rule="evenodd">
        <g id="2-pt-lines-size-48px-and-up" transform="translate(-265.000000, -280.000000)" stroke="#00BF6F" stroke-width="2">
            <g id="45-long-term-vision" transform="translate(265.000000, 281.000000)">
                <path d="M14.3448276,43.0344828 L14.3448276,68.4137931" id="Shape"></path>
                <path d="M6.62068966,68.4137931 L6.62068966,49.6551724" id="Shape"></path>
                <circle id="Oval" cx="11.0344828" cy="8.82758621" r="4.4137931"></circle>
                <polyline id="Shape" points="12.137931 26.4827586 24.2758621 26.4827586 30.8965517 12.137931"></polyline>
                <path d="M24.2758621,68.4137931 L64,68.4137931" id="Shape"></path>
                <path d="M0,68.4137931 L22.0689655,68.4137931" id="Shape"></path>
                <path d="M26.4827586,11.0344828 L22.0689655,20.9655172 L17.6551724,20.9655172 L14.3448276,17.6551724 L7.72413793,17.6551724 C5.89682759,17.6551724 4.4137931,19.1382069 4.4137931,20.9655172 L4.4137931,49.6551724 L7.72413793,49.6551724 L17.6551724,39.7241379 L17.6551724,29.7931034" id="Shape"></path>
                <g id="Group" transform="translate(19.862069, 0.000000)">
                    <polygon id="Shape" points="0 11.0344828 4.4137931 11.0344828 34.2068966 15.4482759 36.4137931 17.6551724 43.0344828 17.6551724 43.0344828 0 36.4137931 0 34.2068966 2.20689655 4.4137931 6.62068966 0 6.62068966"></polygon>
                    <path d="M4.4137931,6.62068966 L4.4137931,11.0344828" id="Shape"></path>
                    <path d="M38.6206897,14.3448276 L38.6206897,17.6551724" id="Shape"></path>
                    <path d="M38.6206897,0 L38.6206897,12.137931" id="Shape"></path>
                </g>
                <path d="M54.0689655,2.20689655 L54.0689655,15.4482759" id="Shape"></path>
                <path d="M50.7586207,8.82758621 L48.5517241,8.82758621" id="Shape"></path>
                <path d="M46.3448276,8.82758621 L44.137931,8.82758621" id="Shape"></path>
                <path d="M41.9310345,8.82758621 L39.7241379,8.82758621" id="Shape"></path>
                <polyline id="Shape" points="29.7931034 68.4137931 29.7931034 55.1724138 34.2068966 55.1724138 34.2068966 68.4137931"></polyline>
                <polyline id="Shape" points="38.6206897 68.4137931 38.6206897 50.7586207 43.0344828 50.7586207 43.0344828 68.4137931"></polyline>
                <polyline id="Shape" points="47.4482759 68.4137931 47.4482759 44.137931 51.862069 44.137931 51.862069 68.4137931"></polyline>
                <polyline id="Shape" points="56.2758621 68.4137931 56.2758621 41.9310345 60.6896552 41.9310345 60.6896552 68.4137931"></polyline>
                <g id="Group" transform="translate(24.275862, 28.689655)">
                    <polyline id="Shape" points="38.6206897 0 28.6896552 9.93103448 19.862069 9.93103448 8.82758621 20.9655172 0 20.9655172"></polyline>
                    <polyline id="Shape" points="38.6206897 6.62068966 38.6206897 0 32 0"></polyline>
                </g>
            </g>
        </g>
    </g>
</svg>