<?xml version="1.0" encoding="UTF-8"?>
<svg width="65px" height="47px" viewBox="0 0 65 47" version="1.1" xmlns="http://www.w3.org/2000/svg" xmlns:xlink="http://www.w3.org/1999/xlink">
    <!-- Generator: Sketch Beta 49.1 (51145) - http://www.bohemiancoding.com/sketch -->
    <title>12-loudspeaker-promotion</title>
    <desc>Created with Sketch Beta.</desc>
    <defs></defs>
    <g id="Engage" stroke="none" stroke-width="1" fill="none" fill-rule="evenodd" stroke-linejoin="round">
        <g id="2-pt-lines-size-48px-and-up" transform="translate(-50.000000, -871.000000)" stroke="#00BF6F" stroke-width="2">
            <g id="12-loudspeaker-promotion" transform="translate(51.000000, 872.000000)">
                <path d="M52.6695381,41.2225528 L4.05150293,25.1357029" id="Shape" stroke-linecap="round"></path>
                <path d="M4.05150293,19.1031342 L52.6695381,3.01628435" id="Shape" stroke-linecap="round"></path>
                <path d="M0,19.1031342 C0,17.9931416 0.906523781,17.092278 2.02575147,17.092278 C3.14396628,17.092278 4.05150293,17.9931416 4.05150293,19.1031342 L4.05150293,25.1357029 C4.05150293,26.2456956 3.14396628,27.1465592 2.02575147,27.1465592 C0.906523781,27.1465592 0,26.2456956 0,25.1357029 L0,19.1031342 Z" id="Shape" stroke-linecap="round"></path>
                <path d="M58.7467925,29.1574154 L58.7467925,41.2225528 C58.7467925,42.8875418 57.3854875,44.2388372 55.7081653,44.2388372 C54.0308431,44.2388372 52.6695381,42.8875418 52.6695381,41.2225528 L52.6695381,29.1574154" id="Shape"></path>
                <path d="M52.6695381,15.0814218 L52.6695381,3.01628435 C52.6695381,1.35129539 54.0308431,0 55.7081653,0 C57.3854875,0 58.7467925,1.35129539 58.7467925,3.01628435 L58.7467925,15.0814218" id="Shape"></path>
                <polyline id="Shape" points="25.3218933 32.1736998 25.3218933 37.2008403 11.1416331 32.1736998 11.1416331 27.1465592"></polyline>
                <path d="M33.3333333,9.04885306 L33.3333333,35.1899841" id="Shape"></path>
                <path d="M43.5536565,20.1085623 C45.9815197,20.1085623 45.1762834,18.0977061 47.6051595,18.0977061 C50.0340355,18.0977061 49.2277864,20.1085623 51.6566624,20.1085623 C54.0875641,20.1085623 53.2772636,18.0977061 55.7081653,18.0977061 C58.1410928,18.0977061 57.3267407,20.1085623 59.7596683,20.1085623 C62.1925958,20.1085623 61.3782437,18.0977061 63.8111712,18.0977061" id="Shape"></path>
                <path d="M39.5021536,24.1302748 C41.9300167,24.1302748 41.1247805,26.1411311 43.5536565,26.1411311 C45.9825325,26.1411311 45.1762834,24.1302748 47.6051595,24.1302748 C50.0360612,24.1302748 49.2257606,26.1411311 51.6566624,26.1411311 C54.0895899,26.1411311 53.2752378,24.1302748 55.7081653,24.1302748 C58.1410928,24.1302748 57.3267407,26.1411311 59.7596683,26.1411311" id="Shape"></path>
            </g>
        </g>
    </g>
</svg>