<?xml version="1.0" encoding="UTF-8"?>
<svg width="32px" height="32px" viewBox="0 0 32 32" version="1.1" xmlns="http://www.w3.org/2000/svg" xmlns:xlink="http://www.w3.org/1999/xlink">
    <!-- Generator: Sketch Beta 50 (54935) - http://www.bohemiancoding.com/sketch -->
    <title>08-market-trends</title>
    <desc>Created with Sketch Beta.</desc>
    <defs></defs>
    <g id="Employee-Portal-Engagement" stroke="none" stroke-width="1" fill="none" fill-rule="evenodd">
        <g id="Rolling-Average-Popover" transform="translate(-427.000000, -235.000000)" stroke="#00BF6F" stroke-width="1.5">
            <g id="Group-2" transform="translate(388.000000, 211.000000)">
                <g id="08-market-trends" transform="translate(39.000000, 24.000000)">
                    <path d="M2.5,0 L2.5,32" id="Shape" stroke-linejoin="round"></path>
                    <path d="M0,29.5 L32,29.5" id="Shape" stroke-linejoin="round"></path>
                    <path d="M5.5,22.5 L8.5,19.5" id="Shape"></path>
                    <g id="Group" transform="translate(4.500000, 27.000000)" stroke-linejoin="round">
                        <path d="M0,1 L0,0" id="Shape"></path>
                        <path d="M2,1 L2,0" id="Shape"></path>
                        <path d="M4,1 L4,0" id="Shape"></path>
                        <path d="M6,1 L6,0" id="Shape"></path>
                        <path d="M8,1 L8,0" id="Shape"></path>
                        <path d="M10,1 L10,0" id="Shape"></path>
                        <path d="M12,1 L12,0" id="Shape"></path>
                        <path d="M14,1 L14,0" id="Shape"></path>
                        <path d="M16,1 L16,0" id="Shape"></path>
                        <path d="M18,1 L18,0" id="Shape"></path>
                        <path d="M20,1 L20,0" id="Shape"></path>
                        <path d="M22,1 L22,0" id="Shape"></path>
                        <path d="M24,1 L24,0" id="Shape"></path>
                        <path d="M26,1 L26,0" id="Shape"></path>
                    </g>
                    <g id="Group" transform="translate(5.000000, 4.500000)">
                        <polyline id="Shape" points="6.5 12 9 9.5 16 9.5 25.5 0"></polyline>
                        <polyline id="Shape" points="0 1 6.5 1 9.5 4 12.5 1 15 1 18.5 4.5"></polyline>
                        <path d="M21,7 L25.5,11.5" id="Shape"></path>
                        <polyline id="Shape" points="23 11.5 25.5 11.5 25.5 9"></polyline>
                        <polyline id="Shape" points="25.5 2.5 25.5 0 23 0"></polyline>
                        <g transform="translate(0.500000, 9.000000)" id="Shape">
                            <polyline points="23 10.5 25 8.5 23 6.5"></polyline>
                            <polyline points="25 8.5 16.5 8.5 13.5 5.5 9.5 9.5 0 0"></polyline>
                        </g>
                    </g>
                </g>
            </g>
        </g>
    </g>
</svg>