<?xml version="1.0" encoding="UTF-8"?>
<svg width="66px" height="66px" viewBox="0 0 66 66" version="1.1" xmlns="http://www.w3.org/2000/svg" xmlns:xlink="http://www.w3.org/1999/xlink">
    <!-- Generator: Sketch Beta 49.1 (51145) - http://www.bohemiancoding.com/sketch -->
    <title>06-organization-chart</title>
    <desc>Created with Sketch Beta.</desc>
    <defs></defs>
    <g id="Engage" stroke="none" stroke-width="1" fill="none" fill-rule="evenodd" stroke-linejoin="round">
        <g id="2-pt-lines-size-48px-and-up" transform="translate(-50.000000, -467.000000)" stroke="#00BF6F" stroke-width="2">
            <g id="06-organization-chart" transform="translate(51.000000, 468.000000)">
                <path d="M54.7096774,22.7096774 C54.7096774,24.9899355 52.8609032,26.8387097 50.5806452,26.8387097 L13.4193548,26.8387097 C11.1390968,26.8387097 9.29032258,24.9899355 9.29032258,22.7096774 L9.29032258,4.12903226 C9.29032258,1.84877419 11.1390968,0 13.4193548,0 L50.5806452,0 C52.8609032,0 54.7096774,1.84877419 54.7096774,4.12903226 L54.7096774,22.7096774 Z" id="Shape"></path>
                <path d="M32,29.9354839 L32,42.3225806" id="Shape"></path>
                <polyline id="Shape" points="54.7096774 42.3225806 54.7096774 36.1290323 9.29032258 36.1290323 9.29032258 42.3225806"></polyline>
                <path d="M30.9677419,13.4193548 L33.0322581,13.4193548" id="Shape"></path>
                <path d="M35.0967742,13.4193548 L37.1612903,13.4193548" id="Shape"></path>
                <path d="M26.8387097,13.4193548 L28.9032258,13.4193548" id="Shape"></path>
                <circle id="Oval" cx="32" cy="54.7096774" r="9.29032258"></circle>
                <circle id="Oval" cx="9.29032258" cy="54.7096774" r="9.29032258"></circle>
                <circle id="Oval" cx="54.7096774" cy="54.7096774" r="9.29032258"></circle>
                <rect id="Rectangle-path" x="13.4193548" y="4.12903226" width="37.1612903" height="18.5806452"></rect>
                <circle id="Oval" cx="9.29032258" cy="54.7096774" r="5.16129032"></circle>
                <circle id="Oval" cx="32" cy="54.7096774" r="5.16129032"></circle>
                <circle id="Oval" cx="54.7096774" cy="54.7096774" r="5.16129032"></circle>
            </g>
        </g>
    </g>
</svg>