<?xml version="1.0" encoding="UTF-8"?>
<svg width="64px" height="64px" viewBox="0 0 64 64" version="1.1" xmlns="http://www.w3.org/2000/svg" xmlns:xlink="http://www.w3.org/1999/xlink">
    <!-- Generator: Sketch Beta 49.1 (51145) - http://www.bohemiancoding.com/sketch -->
    <title>password-blue</title>
    <desc>Created with Sketch Beta.</desc>
    <defs></defs>
    <g id="CX" stroke="none" stroke-width="1" fill="none" fill-rule="evenodd">
        <g id="2-pt-lines-size-48px-and-up" transform="translate(-410.000000, -409.000000)" fill="#00BF6F" fill-rule="nonzero">
            <g id="password-blue" transform="translate(410.000000, 409.000000)">
                <g id="Group" transform="translate(28.000000, 14.000000)">
                    <polygon id="Shape" points="17 25 15 25 15 39 21 39 21 37 17 37"></polygon>
                    <polygon id="Shape" points="19 45 15 45 15 48 11 48 11 28 9 28 9 50 17 50 17 47 21 47 21 41 15 41 15 43 19 43"></polygon>
                    <path d="M13,14 C10.2385763,14 8,11.7614237 8,9 C8,6.23857625 10.2385763,4 13,4 C15.7614237,4 18,6.23857625 18,9 C18,11.7614237 15.7614237,14 13,14 Z M13,12 C14.6568542,12 16,10.6568542 16,9 C16,7.34314575 14.6568542,6 13,6 C11.3431458,6 10,7.34314575 10,9 C10,10.6568542 11.3431458,12 13,12 Z" id="Shape"></path>
                    <path d="M13,26 C5.82029825,26 0,20.1797017 0,13 C0,5.82029825 5.82029825,0 13,0 C20.1797017,0 26,5.82029825 26,13 C26,20.1797017 20.1797017,26 13,26 Z M13,24 C19.0751322,24 24,19.0751322 24,13 C24,6.92486775 19.0751322,2 13,2 C6.92486775,2 2,6.92486775 2,13 C2,19.0751322 6.92486775,24 13,24 Z" id="Shape"></path>
                </g>
                <polygon id="Shape" points="10 47 14 47 14 43 18 43 18 38.415 22.707 33.707 21.293 32.293 16 37.587 16 41 12 41 12 45 8 45 8 48 2 48 2 44.414 19.707 26.707 18.293 25.293 0 43.586 0 50 10 50"></polygon>
                <path d="M26.4083995,30.4007681 C22.01086,28.8822471 19,24.7283584 19,20 C19,13.9252847 23.9252847,9 30,9 C33.1707849,9 36.1231748,10.3484753 38.1980924,12.6651676 L39.6879076,11.3308324 C37.2375269,8.59492713 33.7455486,7 30,7 C22.8207153,7 17,12.8207153 17,20 C17,25.587854 20.5578495,30.4963887 25.7556005,32.2912319 L26.4083995,30.4007681 Z" id="Shape"></path>
                <path d="M23,20 C23,16.1342847 26.1342847,13 30,13 L30,11 C25.0297153,11 21,15.0297153 21,20 L23,20 Z M39.8861781,7.53919941 C42.0788364,4.114476 45.8582859,2 50,2 C56.6277153,2 62,7.37228475 62,14 C62,20.6277153 56.6277153,26 50,26 C46.7542825,26 43.715327,24.7059947 41.477536,22.4463392 L40.056464,23.8536608 C42.6661784,26.4888737 46.2150399,28 50,28 C57.7322847,28 64,21.7322847 64,14 C64,6.26771525 57.7322847,0 50,0 C45.1692146,0 40.7583654,2.4677231 38.2018219,6.46080059 L39.8861781,7.53919941 Z" id="Shape"></path>
            </g>
        </g>
    </g>
</svg>