<?xml version="1.0" encoding="UTF-8"?>
<svg width="66px" height="66px" viewBox="0 0 66 66" version="1.1" xmlns="http://www.w3.org/2000/svg" xmlns:xlink="http://www.w3.org/1999/xlink">
    <!-- Generator: Sketch Beta 49.1 (51145) - http://www.bohemiancoding.com/sketch -->
    <title>05-personal-desk</title>
    <desc>Created with Sketch Beta.</desc>
    <defs></defs>
    <g id="Engage" stroke="none" stroke-width="1" fill="none" fill-rule="evenodd">
        <g id="2-pt-lines-size-48px-and-up" transform="translate(-152.000000, -283.000000)" stroke="#00BF6F" stroke-width="2">
            <g id="05-personal-desk" transform="translate(153.000000, 284.000000)">
                <g id="Group" transform="translate(14.451613, 14.377880)">
                    <path d="M8.25806452,0 C3.69754839,0 0,3.67868334 0,8.21593153 L0,19.5128374" id="Shape"></path>
                    <path d="M26.8387097,0 C31.3992258,0 35.0967742,3.67868334 35.0967742,8.21593153 L35.0967742,19.5128374" id="Shape"></path>
                </g>
                <g id="Group" transform="translate(0.000000, 45.187623)">
                    <polyline id="Shape" points="49.5483871 0 64 0 64 18.485846 53.6774194 18.485846"></polyline>
                    <polyline id="Shape" points="10.3225806 18.485846 0 18.485846 0 0 14.4516129 0"></polyline>
                </g>
                <g id="Group" transform="translate(11.354839, 39.025675)" stroke-linejoin="round">
                    <g id="Shape">
                        <path d="M38.1935484,3.08097433 L38.1935484,24.6477946 L3.09677419,24.6477946 L3.09677419,3.08097433 C3.09677419,1.3802765 4.48412903,0 6.19354839,0 L35.0967742,0 C36.8061935,0 38.1935484,1.3802765 38.1935484,3.08097433 Z"></path>
                        <polyline points="38.1935484 24.6477946 41.2903226 18.485846 41.2903226 12.3238973 38.1935484 12.3238973"></polyline>
                        <polyline points="3.09677419 24.6477946 0 18.485846 0 12.3238973 3.09677419 12.3238973"></polyline>
                    </g>
                    <ellipse id="Oval" cx="20.6451613" cy="12.3238973" rx="3.09677419" ry="3.08097433"></ellipse>
                </g>
                <g id="Group" transform="translate(9.290323, 0.000000)">
                    <path d="M0,45.1876234 L0,43.1336406 C0,32.8637261 7.22580645,33.8907176 14.4516129,29.7827518" id="Shape"></path>
                    <path d="M30.9677419,29.7827518 C38.1935484,33.8907176 45.4193548,31.8367347 45.4193548,42.1066491 L45.4193548,45.1876234" id="Shape"></path>
                    <polygon id="Shape" points="26.8387097 33.8907176 22.7096774 31.8367347 18.5806452 33.8907176 14.4516129 29.7827518 16.516129 26.7017775 22.7096774 27.7287689 28.9032258 26.7017775 30.9677419 29.7827518"></polygon>
                    <path d="M27.8709677,22.5938117 L27.8709677,26.7017775" id="Shape"></path>
                    <path d="M17.5483871,26.7017775 L17.5483871,22.5938117" id="Shape"></path>
                    <path d="M32,9.24292298 C32,3.00394997 28.9806452,0 22.7096774,0 C16.4387097,0 13.4193548,3.00394997 13.4193548,9.24292298 L13.4193548,13.3508887 C14.4516129,20.5398288 17.5483871,22.5938117 17.5483871,22.5938117 C19.6129032,23.6208032 22.7096774,23.6208032 22.7096774,23.6208032 C22.7096774,23.6208032 25.8064516,23.6208032 27.8709677,22.5938117 C27.8709677,22.5938117 30.9677419,20.5398288 32,13.3508887 L32,9.24292298 Z" id="Shape"></path>
                    <polyline id="Shape" points="13.4193548 9.24292298 17.5483871 7.18894009 22.7096774 9.24292298 27.8709677 11.2969059 32 9.24292298"></polyline>
                </g>
            </g>
        </g>
    </g>
</svg>