<?xml version="1.0" encoding="UTF-8"?>
<svg width="64px" height="64px" viewBox="0 0 64 64" version="1.1" xmlns="http://www.w3.org/2000/svg" xmlns:xlink="http://www.w3.org/1999/xlink">
    <!-- Generator: Sketch Beta 49.1 (51145) - http://www.bohemiancoding.com/sketch -->
    <title>radar-blue</title>
    <desc>Created with Sketch Beta.</desc>
    <defs></defs>
    <g id="CX" stroke="none" stroke-width="1" fill="none" fill-rule="evenodd">
        <g id="2-pt-lines-size-48px-and-up" transform="translate(-175.000000, -658.000000)" fill="#00BF6F" fill-rule="nonzero">
            <g id="radar-blue" transform="translate(175.000000, 658.000000)">
                <path d="M64,32 C64,14.3552 49.6448,0 32,0 C23.1093333,0 15.7194667,3.07946667 9.4112,9.4144 C8.99626667,9.8304 8.99626667,10.5056 9.41226667,10.9205333 L15.4069333,16.9152 C15.4069333,16.9152 15.408,16.9162667 15.408,16.9173333 L15.4090667,16.9173333 L31.2458667,32.7541333 C31.6629333,33.1712 32.3370667,33.1712 32.7541333,32.7541333 C33.1712,32.3370667 33.1712,31.6629333 32.7541333,31.2458667 L29.8026667,28.2944 C30.4234667,27.9328 31.152,27.7333333 32,27.7333333 C34.3530667,27.7333333 36.2666667,29.6469333 36.2666667,32 C36.2666667,34.3530667 34.3530667,36.2666667 32,36.2666667 C29.6469333,36.2666667 27.7333333,34.3530667 27.7333333,32 C27.7333333,31.4112 27.2554667,30.9333333 26.6666667,30.9333333 C26.0778667,30.9333333 25.6,31.4112 25.6,32 C25.6,35.5296 28.4704,38.4 32,38.4 C35.5296,38.4 38.4,35.5296 38.4,32 C38.4,28.4704 35.5296,25.6 32,25.6 C30.5653333,25.6 29.2917333,25.9968 28.2538667,26.7456 L23.7397333,22.2314667 C26.048,20.2741333 28.9397333,19.2 32,19.2 C39.0581333,19.2 44.8,24.9418667 44.8,32 C44.8,37.6192 41.1904,42.4992 35.9178667,44.1834667 C35.264,42.6666667 33.7546667,41.6 32,41.6 C30.2442667,41.6 28.736,42.6666667 28.0821333,44.1845333 C22.8096,42.5002667 19.2,37.6192 19.2,32 C19.2,30.0597333 19.6373333,28.1781333 20.5002667,26.4096 C20.7584,25.8794667 20.5386667,25.2416 20.0096,24.9824 C19.4784,24.7232 18.8405333,24.9450667 18.5824,25.4741333 C17.5765333,27.5370667 17.0666667,29.7322667 17.0666667,32 C17.0666667,38.6773333 21.4389333,44.4554667 27.7781333,46.3146667 C28.0064,48.4544 29.8005333,50.1333333 32,50.1333333 C34.1994667,50.1333333 35.9936,48.4544 36.2208,46.3146667 C42.56,44.4554667 46.9333333,38.6762667 46.9333333,32 C46.9333333,23.7653333 40.2346667,17.0666667 32,17.0666667 C28.3701333,17.0666667 24.9450667,18.3648 22.2314667,20.7232 L17.7088,16.1994667 C21.6384,12.6378667 26.6634667,10.6666667 32,10.6666667 C36.352,10.6666667 40.4917333,11.9690667 44.0469333,14.4117333 C43.8485333,14.9034667 43.7333333,15.4378667 43.7333333,16 C43.7333333,18.3530667 45.6469333,20.2666667 48,20.2666667 C48.5621333,20.2666667 49.0976,20.1514667 49.5893333,19.9530667 C52.032,23.5082667 53.3333333,27.6469333 53.3333333,32 C53.3333333,43.7632 43.7632,53.3333333 32,53.3333333 C20.2368,53.3333333 10.6666667,43.7632 10.6666667,32 C10.6666667,27.824 11.8826667,23.7717333 14.1845333,20.2805333 C14.5088,19.7888 14.3733333,19.1274667 13.8805333,18.8021333 C13.3888,18.4768 12.7274667,18.6144 12.4032,19.1061333 C9.87093333,22.9472 8.53333333,27.4048 8.53333333,32 C8.53333333,44.9397333 19.0602667,55.4666667 32,55.4666667 C44.9397333,55.4666667 55.4666667,44.9397333 55.4666667,32 C55.4666667,27.1818667 54.0170667,22.6026667 51.2970667,18.6752 C51.8933333,17.9402667 52.2666667,17.0176 52.2666667,16 C52.2666667,13.6469333 50.3530667,11.7333333 48,11.7333333 C46.9824,11.7333333 46.0586667,12.1066667 45.3248,12.704 C41.3973333,9.98293333 36.816,8.53333333 32,8.53333333 C26.0928,8.53333333 20.5344,10.7274667 16.2005333,14.6912 L11.6853333,10.176 C17.4037333,4.76586667 24.0608,2.13333333 32,2.13333333 C48.4693333,2.13333333 61.8666667,15.5317333 61.8666667,32 C61.8666667,38.4629333 59.7269333,44.7690667 55.8634667,49.9168 C55.1530667,49.3898667 54.2837333,49.0666667 53.3333333,49.0666667 C50.9802667,49.0666667 49.0666667,50.9802667 49.0666667,53.3333333 C49.0666667,54.2837333 49.3898667,55.1530667 49.9168,55.8634667 C44.7690667,59.728 38.4661333,61.8666667 32,61.8666667 C15.5306667,61.8666667 2.13333333,48.4682667 2.13333333,32 C2.13333333,26.3530667 3.72053333,20.8544 6.72533333,16.0970667 C7.04,15.5989333 6.89066667,14.9397333 6.39253333,14.6250667 C5.89546667,14.3114667 5.2352,14.4597333 4.92053333,14.9578667 C1.70133333,20.0565333 0,25.9498667 0,32 C0,49.6448 14.3552,64 32,64 C39.1104,64 46.0384,61.5925333 51.6309333,57.2416 C52.1536,57.4698667 52.7285333,57.6 53.3333333,57.6 C55.6864,57.6 57.6,55.6864 57.6,53.3333333 C57.6,52.7285333 57.4698667,52.1557333 57.2416,51.6330667 C61.5925333,46.0416 64,39.1061333 64,32 Z M32,48 C30.8234667,48 29.8666667,47.0432 29.8666667,45.8666667 C29.8666667,44.6901333 30.8234667,43.7333333 32,43.7333333 C33.1765333,43.7333333 34.1333333,44.6901333 34.1333333,45.8666667 C34.1333333,47.0432 33.1765333,48 32,48 Z M50.1333333,16 C50.1333333,16.5845333 49.8954667,17.1136 49.5146667,17.4997333 C49.4144,17.536 49.3141333,17.5722667 49.2256,17.6394667 C49.1466667,17.6992 49.0944,17.7770667 49.0378667,17.8517333 C48.7296,18.0256 48.3776,18.1333333 48,18.1333333 C46.8234667,18.1333333 45.8666667,17.1765333 45.8666667,16 C45.8666667,14.8234667 46.8234667,13.8666667 48,13.8666667 C49.1765333,13.8666667 50.1333333,14.8234667 50.1333333,16 Z M53.3333333,55.4666667 C53.0197333,55.4666667 52.7253333,55.3952 52.4576,55.2736 C52.4501333,55.264 52.448,55.2522667 52.4405333,55.2426667 C52.2997333,55.072 52.1130667,54.9749333 51.9168,54.9152 C51.4805333,54.5248 51.2,53.9637333 51.2,53.3333333 C51.2,52.1568 52.1568,51.2 53.3333333,51.2 C54.5098667,51.2 55.4666667,52.1568 55.4666667,53.3333333 C55.4666667,54.5098667 54.5098667,55.4666667 53.3333333,55.4666667 Z" id="boat-radar"></path>
            </g>
        </g>
    </g>
</svg>