<?xml version="1.0" encoding="UTF-8"?>
<svg width="66px" height="66px" viewBox="0 0 66 66" version="1.1" xmlns="http://www.w3.org/2000/svg" xmlns:xlink="http://www.w3.org/1999/xlink">
    <!-- Generator: Sketch Beta 49.1 (51145) - http://www.bohemiancoding.com/sketch -->
    <title>08-schedule-planning</title>
    <desc>Created with Sketch Beta.</desc>
    <defs></defs>
    <g id="Engage" stroke="none" stroke-width="1" fill="none" fill-rule="evenodd">
        <g id="2-pt-lines-size-48px-and-up" transform="translate(-152.000000, -1208.000000)" stroke="#00BF6F" stroke-width="2">
            <g id="08-schedule-planning" transform="translate(153.000000, 1209.000000)">
                <polyline id="Shape" stroke-linejoin="round" points="32 55.7419355 0 55.7419355 0 10.3225806 64 10.3225806 64 36.1290323"></polyline>
                <rect id="Rectangle-path" x="21.6774194" y="18.5806452" width="4.12903226" height="4.12903226"></rect>
                <rect id="Rectangle-path" x="29.9354839" y="18.5806452" width="4.12903226" height="4.12903226"></rect>
                <rect id="Rectangle-path" x="38.1935484" y="18.5806452" width="4.12903226" height="4.12903226"></rect>
                <rect id="Rectangle-path" x="46.4516129" y="18.5806452" width="4.12903226" height="4.12903226"></rect>
                <rect id="Rectangle-path" x="54.7096774" y="18.5806452" width="4.12903226" height="4.12903226"></rect>
                <rect id="Rectangle-path" x="21.6774194" y="26.8387097" width="4.12903226" height="4.12903226"></rect>
                <rect id="Rectangle-path" x="13.4193548" y="26.8387097" width="4.12903226" height="4.12903226"></rect>
                <rect id="Rectangle-path" x="5.16129032" y="26.8387097" width="4.12903226" height="4.12903226"></rect>
                <rect id="Rectangle-path" x="29.9354839" y="26.8387097" width="4.12903226" height="4.12903226"></rect>
                <rect id="Rectangle-path" x="38.1935484" y="26.8387097" width="4.12903226" height="4.12903226"></rect>
                <rect id="Rectangle-path" x="46.4516129" y="26.8387097" width="4.12903226" height="4.12903226"></rect>
                <rect id="Rectangle-path" x="54.7096774" y="26.8387097" width="4.12903226" height="4.12903226"></rect>
                <rect id="Rectangle-path" x="21.6774194" y="35.0967742" width="4.12903226" height="4.12903226"></rect>
                <rect id="Rectangle-path" x="13.4193548" y="35.0967742" width="4.12903226" height="4.12903226"></rect>
                <rect id="Rectangle-path" x="5.16129032" y="35.0967742" width="4.12903226" height="4.12903226"></rect>
                <rect id="Rectangle-path" x="29.9354839" y="35.0967742" width="4.12903226" height="4.12903226"></rect>
                <rect id="Rectangle-path" x="21.6774194" y="43.3548387" width="4.12903226" height="4.12903226"></rect>
                <rect id="Rectangle-path" x="13.4193548" y="43.3548387" width="4.12903226" height="4.12903226"></rect>
                <rect id="Rectangle-path" x="5.16129032" y="43.3548387" width="4.12903226" height="4.12903226"></rect>
                <polyline id="Shape" stroke-linejoin="round" points="0 7.22580645 0 0 64 0 64 7.22580645"></polyline>
                <path d="M6.19354839,4.12903226 L57.8064516,4.12903226" id="Shape" stroke-linejoin="round"></path>
                <path d="M16.516129,20.6451613 L14.4516129,20.6451613" id="Shape" stroke-linejoin="round"></path>
                <path d="M8.25806452,20.6451613 L6.19354839,20.6451613" id="Shape" stroke-linejoin="round"></path>
                <polyline id="Shape" stroke-linejoin="round" points="55.7419355 45.4193548 47.483871 53.6774194 43.3548387 49.5483871"></polyline>
                <circle id="Oval" stroke-linejoin="round" cx="49.5483871" cy="49.5483871" r="14.4516129"></circle>
            </g>
        </g>
    </g>
</svg>