<?xml version="1.0" encoding="UTF-8"?>
<svg width="64px" height="64px" viewBox="0 0 64 64" version="1.1" xmlns="http://www.w3.org/2000/svg" xmlns:xlink="http://www.w3.org/1999/xlink">
    <!-- Generator: Sketch Beta 49.1 (51145) - http://www.bohemiancoding.com/sketch -->
    <title>settings-blue</title>
    <desc>Created with Sketch Beta.</desc>
    <defs></defs>
    <g id="CX" stroke="none" stroke-width="1" fill="none" fill-rule="evenodd">
        <g id="2-pt-lines-size-48px-and-up" transform="translate(-534.000000, -409.000000)" fill="#00BF6F" fill-rule="nonzero">
            <g id="settings-blue" transform="translate(534.000000, 409.000000)">
                <g id="Group" transform="translate(0.000000, 22.000000)">
                    <path d="M39,21 C39,22.0363172 39.8003828,22.8935534 40.8365457,22.9783304 L41.9020806,23.0655105 L41.744009,24.1228555 C41.2356059,27.5235763 39.9093469,30.7072937 37.8907241,33.4436489 L37.2111254,34.3648828 L36.3895849,33.5676392 C36.0151553,33.2042833 35.5250492,33 35,33 C33.8962847,33 33,33.8962847 33,35 C33,35.5250492 33.2042833,36.0151553 33.5676392,36.3895849 L34.3648828,37.2111254 L33.4436489,37.8907241 C30.7072937,39.9093469 27.5235763,41.2356059 24.1228555,41.744009 L23.0655105,41.9020806 L22.9783304,40.8365457 C22.8935534,39.8003828 22.0363172,39 21,39 C19.9636828,39 19.1064466,39.8003828 19.0216696,40.8365457 L18.9344895,41.9020806 L17.8771445,41.744009 C14.4758291,41.235517 11.2910949,39.9089459 8.55620097,37.8906134 L7.63526728,37.2109708 L8.43236081,36.3895849 C8.79571669,36.0151553 9,35.5250492 9,35 C9,33.8962847 8.10371525,33 7,33 C6.47495078,33 5.98484468,33.2042833 5.61041511,33.5676392 L4.78887458,34.3648828 L4.10927587,33.4436489 C2.09065315,30.7072937 0.764394134,27.5235763 0.255991024,24.1228555 L0.0979193977,23.0655105 L1.16345431,22.9783304 C2.19961718,22.8935534 3,22.0363172 3,21 C3,19.9636828 2.19961718,19.1064466 1.16345431,19.0216696 L0.0979193977,18.9344895 L0.255991024,17.8771445 C0.764483035,14.4758291 2.09105407,11.2910949 4.10938661,8.55620097 L4.7890292,7.63526728 L5.61041511,8.43236081 C5.98484468,8.79571669 6.47495078,9 7,9 C8.10371525,9 9,8.10371525 9,7 C9,6.47495078 8.79571669,5.98484468 8.43236081,5.61041511 L7.63526728,4.7890292 L8.55620097,4.10938661 C11.2910949,2.09105407 14.4758291,0.764483035 17.8771445,0.255991024 L18.9344895,0.0979193977 L19.0216696,1.16345431 C19.1064466,2.19961718 19.9636828,3 21,3 C22.0363172,3 22.8935534,2.19961718 22.9783304,1.16345431 L23.0655105,0.0979193977 L24.1228555,0.255991024 C27.5235763,0.764394134 30.7072937,2.09065315 33.4436489,4.10927587 L34.3648828,4.78887458 L33.5676392,5.61041511 C33.2042833,5.98484468 33,6.47495078 33,7 C33,8.10371525 33.8962847,9 35,9 C35.5250492,9 36.0151553,8.79571669 36.3895849,8.43236081 L37.2111254,7.63511724 L37.8907241,8.55635105 C39.9093469,11.2927063 41.2356059,14.4764237 41.744009,17.8771445 L41.9020806,18.9344895 L40.8365457,19.0216696 C39.8003828,19.1064466 39,19.9636828 39,21 Z M37,21 C37,19.291904 38.0788877,17.8286981 39.6074758,17.2637173 C39.1266284,14.8531237 38.1864806,12.5802987 36.843164,10.54788 C36.2825566,10.8411077 35.6537842,11 35,11 C32.7917153,11 31,9.20828475 31,7 C31,6.34621581 31.1588923,5.71744345 31.45212,5.15683597 C29.4197013,3.81351943 27.1468763,2.87337164 24.7362827,2.39252422 C24.1713019,3.9211123 22.708096,5 21,5 C19.2919023,5 17.8286951,3.92111008 17.2637156,2.3925195 C14.8526709,2.87342798 12.5793554,3.81368791 10.5478138,5.15670936 C10.8410838,5.71734878 11,6.34616659 11,7 C11,9.20828475 9.20828475,11 7,11 C6.34616659,11 5.71734878,10.8410838 5.15670936,10.5478138 C3.81368791,12.5793554 2.87342798,14.8526709 2.3925195,17.2637156 C3.92111008,17.8286951 5,19.2919023 5,21 C5,22.708096 3.9211123,24.1713019 2.39252422,24.7362827 C2.87337164,27.1468763 3.81351943,29.4197013 5.15683597,31.45212 C5.71744345,31.1588923 6.34621581,31 7,31 C9.20828475,31 11,32.7917153 11,35 C11,35.6538334 10.8410838,36.2826512 10.5478138,36.8432906 C12.5793554,38.1863121 14.8526709,39.126572 17.2637156,39.6074805 C17.8286951,38.0788899 19.2919023,37 21,37 C22.708096,37 24.1713019,38.0788877 24.7362827,39.6074758 C27.1468763,39.1266284 29.4197013,38.1864806 31.45212,36.843164 C31.1588923,36.2825566 31,35.6537842 31,35 C31,32.7917153 32.7917153,31 35,31 C35.6537842,31 36.2825566,31.1588923 36.843164,31.45212 C38.1864806,29.4197013 39.1266284,27.1468763 39.6074758,24.7362827 C38.0788877,24.1713019 37,22.708096 37,21 Z" id="Shape"></path>
                    <path d="M21,31 C15.4771525,31 11,26.5228475 11,21 C11,15.4771525 15.4771525,11 21,11 C26.5228475,11 31,15.4771525 31,21 C31,26.5228475 26.5228475,31 21,31 Z M21,29 C25.418278,29 29,25.418278 29,21 C29,16.581722 25.418278,13 21,13 C16.581722,13 13,16.581722 13,21 C13,25.418278 16.581722,29 21,29 Z" id="Shape"></path>
                    <path d="M21,25 C18.790861,25 17,23.209139 17,21 C17,18.790861 18.790861,17 21,17 C23.209139,17 25,18.790861 25,21 C25,23.209139 23.209139,25 21,25 Z M21,23 C22.1045695,23 23,22.1045695 23,21 C23,19.8954305 22.1045695,19 21,19 C19.8954305,19 19,19.8954305 19,21 C19,22.1045695 19.8954305,23 21,23 Z" id="Shape"></path>
                </g>
                <g id="Group" transform="translate(32.000000, 0.000000)">
                    <path d="M29,16 C29,17.0235043 29.7809225,17.8734675 30.8028288,17.9759954 L31.9012994,18.086205 L31.6833119,19.168455 C31.2645116,21.247688 30.4419961,23.205994 29.2675503,24.9439147 L28.7542363,25.7035061 L27.9530104,25.2579646 C27.6477253,25.0882032 27.3273645,25 27,25 C25.8962847,25 25,25.8962847 25,27 C25,27.3273645 25.0882032,27.6477253 25.2579646,27.9530104 L25.7035061,28.7542363 L24.9439147,29.2675503 C23.2044869,30.4430145 21.2458658,31.2659327 19.167977,31.6834081 L18.086151,31.9007613 L17.9759954,30.8028288 C17.8734675,29.7809225 17.0235043,29 16,29 C14.9763967,29 14.1265564,29.7810103 14.0240112,30.8037637 L13.9138663,31.9023138 L12.831545,31.6843119 C10.752312,31.2655116 8.79400601,30.4429961 7.05608529,29.2685503 L6.29724885,28.7557465 L6.74155443,27.9548764 C6.91176431,27.6480695 7,27.3274243 7,27 C7,25.8962847 6.10371525,25 5,25 C4.67263552,25 4.35227474,25.0882032 4.04698964,25.2579646 L3.24576369,25.7035061 L2.73244975,24.9439147 C1.55698551,23.2044869 0.734067271,21.2458658 0.316591885,19.167977 L0.0992387161,18.086151 L1.19717115,17.9759954 C2.21907752,17.8734675 3,17.0235043 3,16 C3,14.9764957 2.21907752,14.1265325 1.19717115,14.0240046 L0.0987005978,13.913795 L0.316688052,12.831545 C0.735488407,10.752312 1.55800395,8.79400601 2.73244975,7.05608529 L3.244844,6.29785483 L4.04542763,6.74116866 C4.35302428,6.91149672 4.67386953,7 5,7 C6.10371525,7 7,6.10371525 7,5 C7,4.67263552 6.91179677,4.35227474 6.74203543,4.04698964 L6.29649389,3.24576369 L7.05608529,2.73244975 C8.79551307,1.55698551 10.7541342,0.734067271 12.832023,0.316591885 L13.913849,0.0992387161 L14.0240046,1.19717115 C14.1265325,2.21907752 14.9764957,3 16,3 C17.0236033,3 17.8734436,2.21898973 17.9759888,1.19623635 L18.0861337,0.0976862445 L19.168455,0.315688052 C21.247688,0.734488407 23.205994,1.55700395 24.9439147,2.73144975 L25.7027511,3.2442535 L25.2584456,4.04512365 C25.0882357,4.35193052 25,4.6725757 25,5 C25,6.10371525 25.8962847,7 27,7 C27.3261305,7 27.6469757,6.91149672 27.9545724,6.74116866 L28.755156,6.29785483 L29.2675503,7.05608529 C30.4430145,8.79551307 31.2659327,10.7541342 31.6834081,12.832023 L31.9007613,13.913849 L30.8028288,14.0240046 C29.7809225,14.1265325 29,14.9764957 29,16 Z M27,16 C27,14.331925 28.0291383,12.8961059 29.5044603,12.3034387 C29.1734221,11.0891111 28.6809448,9.93065649 28.0416093,8.85547071 C27.7044427,8.95037395 27.3557365,9 27,9 C24.7917153,9 23,7.20828475 23,5 C23,4.64379281 23.0495256,4.29475048 23.1444081,3.9573757 C22.0700068,3.31868226 20.9116662,2.82642002 19.6965997,2.49490013 C19.1039923,3.97071112 17.6682571,5 16,5 C14.331925,5 12.8961059,3.97086172 12.3034387,2.49553969 C11.0892293,2.82654566 9.93088201,3.31895937 8.85578468,3.958204 C8.95053602,4.29521987 9,4.64405015 9,5 C9,7.20828475 7.20828475,9 5,9 C4.6442807,9 4.29559102,8.95037875 3.95843957,8.85548447 C3.31968616,9.92996467 2.82738648,11.0883983 2.4958551,12.3035654 C3.97100839,12.8963106 5,14.3320439 5,16 C5,17.668075 3.97086172,19.1038941 2.49553969,19.6965613 C2.82654566,20.9107707 3.31895937,22.069118 3.958204,23.1442153 C4.29521987,23.049464 4.64405015,23 5,23 C7.20828475,23 9,24.7917153 9,27 C9,27.3562072 8.95047437,27.7052495 8.85559191,28.0426243 C9.92999324,28.6813177 11.0883338,29.17358 12.3034003,29.5050999 C12.8960077,28.0292889 14.3317429,27 16,27 C17.668075,27 19.1038941,28.0291383 19.6965613,29.5044603 C20.9107707,29.1734543 22.069118,28.6810406 23.1442153,28.041796 C23.049464,27.7047801 23,27.3559498 23,27 C23,24.7917153 24.7917153,23 27,23 C27.3559326,23 27.7047464,23.0494592 28.0417471,23.1442016 C28.6804097,22.0698097 29.1726458,20.9114834 29.5041449,19.6964346 C28.0289916,19.1036894 27,17.6679561 27,16 Z" id="Shape"></path>
                    <path d="M16,21 C13.2385763,21 11,18.7614237 11,16 C11,13.2385763 13.2385763,11 16,11 C18.7614237,11 21,13.2385763 21,16 C21,18.7614237 18.7614237,21 16,21 Z M16,19 C17.6568542,19 19,17.6568542 19,16 C19,14.3431458 17.6568542,13 16,13 C14.3431458,13 13,14.3431458 13,16 C13,17.6568542 14.3431458,19 16,19 Z" id="Shape"></path>
                </g>
                <path d="M2,29 L2,28 C2.94963697,13.1203914 17.2195952,2 34,2 L36,2 L36,0 L34,0 C16.2353444,0 1.02635235,11.8521681 0.0020217557,27.9364435 L0,29 L2,29 Z M35,64 L36,64 C52.1478319,62.9736477 64,47.7646556 64,30 L64,28 L62,28 L62,30 C62,46.7804048 50.8796086,61.050363 35.9364435,62.0020218 L35,62 L35,64 Z" id="Shape"></path>
            </g>
        </g>
    </g>
</svg>