<?xml version="1.0" encoding="UTF-8"?>
<svg width="66px" height="66px" viewBox="0 0 66 66" version="1.1" xmlns="http://www.w3.org/2000/svg" xmlns:xlink="http://www.w3.org/1999/xlink">
    <!-- Generator: Sketch Beta 49.1 (51145) - http://www.bohemiancoding.com/sketch -->
    <title>02-startup-launch</title>
    <desc>Created with Sketch Beta.</desc>
    <defs></defs>
    <g id="Engage" stroke="none" stroke-width="1" fill="none" fill-rule="evenodd" stroke-linejoin="round">
        <g id="2-pt-lines-size-48px-and-up" transform="translate(-50.000000, -1046.000000)" stroke="#00BF6F" stroke-width="2">
            <g id="02-startup-launch" transform="translate(51.000000, 1047.000000)">
                <path d="M21.6774194,54.7096774 L9.29032258,42.3225806 C9.29032258,42.3225806 35.0967742,0 64,0 C64,28.9032258 21.6774194,54.7096774 21.6774194,54.7096774 Z" id="Shape"></path>
                <polyline id="Shape" points="19.6129032 52.6451613 16.516129 55.7419355 8.25806452 47.483871 11.3548387 44.3870968"></polyline>
                <path d="M6.19354839,50.5806452 C0,56.7741935 0,64 0,64 C0,64 7.22580645,64 13.4193548,57.8064516" id="Shape"></path>
                <circle id="Oval" cx="46.4516129" cy="17.5483871" r="4.12903226"></circle>
                <circle id="Oval" cx="37.1612903" cy="26.8387097" r="4.12903226"></circle>
                <circle id="Oval" cx="27.8709677" cy="36.1290323" r="4.12903226"></circle>
                <polyline id="Shape" points="54.7096774 24.7741935 37.1612903 64 26.8387097 64 26.8387097 55.7419355"></polyline>
                <polyline id="Shape" points="39.2258065 9.29032258 0 26.8387097 0 37.1612903 8.25806452 37.1612903"></polyline>
                <path d="M61.9354839,10.3225806 C57.3739355,10.3225806 53.6774194,6.62503226 53.6774194,2.06451613" id="Shape"></path>
            </g>
        </g>
    </g>
</svg>