<?xml version="1.0" encoding="UTF-8"?>
<svg width="43px" height="40px" viewBox="0 0 43 40" version="1.1" xmlns="http://www.w3.org/2000/svg" xmlns:xlink="http://www.w3.org/1999/xlink">
    <!-- Generator: Sketch Beta 49.1 (51145) - http://www.bohemiancoding.com/sketch -->
    <title>starter</title>
    <desc>Created with Sketch Beta.</desc>
    <defs></defs>
    <g id="CX" stroke="none" stroke-width="1" fill="none" fill-rule="evenodd">
        <g id="2-pt-lines-size-48px-and-up" transform="translate(-272.000000, -917.000000)">
            <g id="starter" transform="translate(272.000000, 917.000000)">
                <path d="M6,2 L6,4 L16,4 L16,2 L6,2 Z M18,0 L18,6 L4,6 L4,0 L18,0 Z" id="Rectangle-path-Copy-13" fill="#00BF6F" fill-rule="nonzero"></path>
                <polygon id="Shape-Copy-154" fill="#00BF6F" fill-rule="nonzero" points="2 38 2 6 41.0027313 6 41.0027313 4 0 4 0 40 5 40 5 38"></polygon>
                <rect id="Rectangle" fill="#00BF6F" fill-rule="nonzero" x="41" y="4" width="2" height="34"></rect>
                <rect id="Rectangle-8-Copy-5" fill="#00BF6F" fill-rule="nonzero" x="4" y="38" width="39" height="2"></rect>
                <g id="Group-2" transform="translate(5.000000, 10.000000)">
                    <g id="Rectangle-3">
                        <g id="path-1-link" fill="#D8D8D8">
                            <rect id="path-1" x="0" y="0" width="14" height="2"></rect>
                        </g>
                        <rect id="Rectangle-path" stroke="#00BF6F" stroke-width="2" x="0.5" y="0.5" width="13" height="1"></rect>
                    </g>
                    <g id="Rectangle-3-Copy" transform="translate(0.000000, 4.000000)">
                        <g id="path-2-link" fill="#D8D8D8">
                            <rect id="path-2" x="0" y="0" width="14" height="2"></rect>
                        </g>
                        <rect id="Rectangle-path" stroke="#00BF6F" stroke-width="2" x="0.5" y="0.5" width="13" height="1"></rect>
                    </g>
                    <g id="Rectangle-3-Copy-2" transform="translate(0.000000, 8.000000)">
                        <g id="path-3-link" fill="#D8D8D8">
                            <rect id="path-3" x="0" y="0" width="14" height="2"></rect>
                        </g>
                        <rect id="Rectangle-path" stroke="#00BF6F" stroke-width="2" x="0.5" y="0.5" width="13" height="1"></rect>
                    </g>
                </g>
                <g id="Group-2-Copy" transform="translate(24.000000, 10.000000)">
                    <g id="Rectangle-3">
                        <g id="path-4-link" fill="#D8D8D8">
                            <rect id="path-4" x="0" y="0" width="14" height="2"></rect>
                        </g>
                        <rect id="Rectangle-path" stroke="#00BF6F" stroke-width="2" x="0.5" y="0.5" width="13" height="1"></rect>
                    </g>
                    <g id="Rectangle-3-Copy" transform="translate(0.000000, 4.000000)">
                        <g id="path-5-link" fill="#D8D8D8">
                            <rect id="path-5" x="0" y="0" width="14" height="2"></rect>
                        </g>
                        <rect id="Rectangle-path" stroke="#00BF6F" stroke-width="2" x="0.5" y="0.5" width="13" height="1"></rect>
                    </g>
                    <g id="Rectangle-3-Copy-2" transform="translate(0.000000, 8.000000)">
                        <g id="path-6-link" fill="#D8D8D8">
                            <rect id="path-6" x="0" y="0" width="14" height="2"></rect>
                        </g>
                        <rect id="Rectangle-path" stroke="#00BF6F" stroke-width="2" x="0.5" y="0.5" width="13" height="1"></rect>
                    </g>
                </g>
                <g id="Group" transform="translate(16.000000, 26.000000)">
                    <rect id="Rectangle-2" stroke="#00BF6F" stroke-width="2" x="0" y="0" width="12" height="13"></rect>
                    <g id="Rectangle-4" transform="translate(5.000000, 6.000000)">
                        <g id="path-7-link" fill="#D8D8D8">
                            <rect id="path-7" x="0" y="0" width="2" height="6"></rect>
                        </g>
                        <rect id="Rectangle-path" stroke="#00BF6F" stroke-width="2" x="0.5" y="0.5" width="1" height="5"></rect>
                    </g>
                </g>
                <g id="tree" transform="translate(5.000000, 30.000000)">
                    <g id="Rectangle-9" transform="translate(2.000000, 3.000000)">
                        <g id="path-8-link" fill="#D8D8D8">
                            <rect id="path-8" x="0" y="0" width="2" height="5"></rect>
                        </g>
                        <rect id="Rectangle-path" stroke="#00BF6F" stroke-width="2" x="0.5" y="0.5" width="1" height="4"></rect>
                    </g>
                    <circle id="Oval" stroke="#00BF6F" stroke-width="2" fill="#00BF6F" fill-rule="nonzero" cx="1" cy="4" r="1"></circle>
                    <circle id="Oval-Copy" stroke="#00BF6F" stroke-width="2" fill="#00BF6F" fill-rule="nonzero" cx="5" cy="4" r="1"></circle>
                    <circle id="Oval-Copy-3" stroke="#00BF6F" stroke-width="2" fill="#00BF6F" fill-rule="nonzero" cx="3" cy="1" r="1"></circle>
                    <circle id="Oval-Copy-4" stroke="#00BF6F" stroke-width="2" fill="#00BF6F" fill-rule="nonzero" cx="1" cy="2" r="1"></circle>
                    <circle id="Oval-Copy-5" stroke="#00BF6F" stroke-width="2" fill="#00BF6F" fill-rule="nonzero" cx="5" cy="2" r="1"></circle>
                    <circle id="Oval-Copy-6" stroke="#00BF6F" stroke-width="2" fill="#00BF6F" fill-rule="nonzero" cx="3" cy="2" r="1"></circle>
                </g>
                <g id="tree-copy" transform="translate(32.000000, 30.000000)">
                    <g id="Rectangle-9" transform="translate(2.000000, 3.000000)">
                        <g id="path-9-link" fill="#D8D8D8">
                            <rect id="path-9" x="0" y="0" width="2" height="5"></rect>
                        </g>
                        <rect id="Rectangle-path" stroke="#00BF6F" stroke-width="2" x="0.5" y="0.5" width="1" height="4"></rect>
                    </g>
                    <circle id="Oval" stroke="#00BF6F" stroke-width="2" fill="#00BF6F" fill-rule="nonzero" cx="1" cy="4" r="1"></circle>
                    <circle id="Oval-Copy" stroke="#00BF6F" stroke-width="2" fill="#00BF6F" fill-rule="nonzero" cx="5" cy="4" r="1"></circle>
                    <circle id="Oval-Copy-3" stroke="#00BF6F" stroke-width="2" fill="#00A8FF" fill-rule="nonzero" cx="3" cy="1" r="1"></circle>
                    <circle id="Oval-Copy-4" stroke="#00BF6F" stroke-width="2" fill="#00BF6F" fill-rule="nonzero" cx="1" cy="2" r="1"></circle>
                    <circle id="Oval-Copy-5" stroke="#00BF6F" stroke-width="2" fill="#00BF6F" fill-rule="nonzero" cx="5" cy="2" r="1"></circle>
                    <circle id="Oval-Copy-6" stroke="#00BF6F" stroke-width="2" fill="#00BF6F" fill-rule="nonzero" cx="3" cy="2" r="1"></circle>
                </g>
            </g>
        </g>
    </g>
</svg>