<?xml version="1.0" encoding="UTF-8"?>
<svg width="64px" height="60px" viewBox="0 0 64 60" version="1.1" xmlns="http://www.w3.org/2000/svg" xmlns:xlink="http://www.w3.org/1999/xlink">
    <!-- Generator: Sketch Beta 49.1 (51145) - http://www.bohemiancoding.com/sketch -->
    <title>35-statistical-analysis</title>
    <desc>Created with Sketch Beta.</desc>
    <defs></defs>
    <g id="Engage" stroke="none" stroke-width="1" fill="none" fill-rule="evenodd">
        <g id="2-pt-lines-size-48px-and-up" transform="translate(-381.000000, -1212.000000)" stroke="#00BF6F" stroke-width="2">
            <g id="35-statistical-analysis" transform="translate(381.000000, 1213.000000)">
                <path d="M0,42 L64,42" id="Shape"></path>
                <path d="M64,38 C47,38 46,0 32,0 C18,0 17,38 0,38" id="Shape"></path>
                <path d="M19,15 L19,42" id="Shape"></path>
                <path d="M32,0 L32,42" id="Shape"></path>
                <path d="M15,24 L15,42" id="Shape"></path>
                <path d="M11,31 L11,42" id="Shape"></path>
                <path d="M7,36 L7,42" id="Shape"></path>
                <path d="M3,38 L3,42" id="Shape"></path>
                <path d="M45,15 L45,42" id="Shape"></path>
                <path d="M49,24 L49,42" id="Shape"></path>
                <path d="M53,31 L53,42" id="Shape"></path>
                <path d="M57,36 L57,42" id="Shape"></path>
                <path d="M61,38 L61,42" id="Shape"></path>
                <path d="M19,15 L8,15" id="Shape"></path>
                <path d="M6,15 L4,15" id="Shape"></path>
                <path d="M2,15 L0,15" id="Shape"></path>
                <path d="M32,0 L56,0" id="Shape"></path>
                <path d="M58,0 L60,0" id="Shape"></path>
                <path d="M62,0 L64,0" id="Shape"></path>
                <path d="M1,46 L3,46" id="Shape"></path>
                <path d="M5,46 L7,46" id="Shape"></path>
                <path d="M9,46 L11,46" id="Shape"></path>
                <path d="M13,46 L15,46" id="Shape"></path>
                <path d="M17,46 L19,46" id="Shape"></path>
                <path d="M21,46 L23,46" id="Shape"></path>
                <path d="M25,46 L27,46" id="Shape"></path>
                <path d="M29,46 L31,46" id="Shape"></path>
                <path d="M33,46 L35,46" id="Shape"></path>
                <path d="M37,46 L39,46" id="Shape"></path>
                <path d="M41,46 L43,46" id="Shape"></path>
                <path d="M45,46 L47,46" id="Shape"></path>
                <path d="M9,50 L11,50" id="Shape"></path>
                <path d="M13,50 L15,50" id="Shape"></path>
                <path d="M17,50 L19,50" id="Shape"></path>
                <path d="M21,50 L23,50" id="Shape"></path>
                <path d="M25,50 L27,50" id="Shape"></path>
                <path d="M29,50 L31,50" id="Shape"></path>
                <path d="M33,50 L35,50" id="Shape"></path>
                <path d="M37,50 L39,50" id="Shape"></path>
                <path d="M41,50 L43,50" id="Shape"></path>
                <path d="M45,50 L47,50" id="Shape"></path>
                <path d="M17,54 L19,54" id="Shape"></path>
                <path d="M21,54 L23,54" id="Shape"></path>
                <path d="M25,54 L27,54" id="Shape"></path>
                <path d="M29,54 L31,54" id="Shape"></path>
                <path d="M33,54 L35,54" id="Shape"></path>
                <path d="M37,54 L39,54" id="Shape"></path>
                <path d="M41,54 L43,54" id="Shape"></path>
                <path d="M45,54 L47,54" id="Shape"></path>
                <path d="M25,58 L27,58" id="Shape"></path>
                <path d="M29,58 L31,58" id="Shape"></path>
                <path d="M33,58 L35,58" id="Shape"></path>
                <path d="M37,58 L39,58" id="Shape"></path>
                <path d="M49,46 L51,46" id="Shape"></path>
                <path d="M53,46 L55,46" id="Shape"></path>
                <path d="M57,46 L59,46" id="Shape"></path>
                <path d="M61,46 L63,46" id="Shape"></path>
                <path d="M49,50 L51,50" id="Shape"></path>
                <path d="M53,50 L55,50" id="Shape"></path>
            </g>
        </g>
    </g>
</svg>