<?xml version="1.0" encoding="UTF-8"?>
<svg width="66px" height="62px" viewBox="0 0 66 62" version="1.1" xmlns="http://www.w3.org/2000/svg" xmlns:xlink="http://www.w3.org/1999/xlink">
    <!-- Generator: Sketch Beta 49.1 (51145) - http://www.bohemiancoding.com/sketch -->
    <title>06-success-mission</title>
    <desc>Created with Sketch Beta.</desc>
    <defs></defs>
    <g id="Engage" stroke="none" stroke-width="1" fill="none" fill-rule="evenodd">
        <g id="2-pt-lines-size-48px-and-up" transform="translate(-493.000000, -286.000000)" stroke="#00BF6F" stroke-width="2">
            <g id="06-success-mission" transform="translate(494.000000, 287.000000)">
                <polyline id="Shape" stroke-linejoin="round" points="32 53.6774194 46.4516129 25.8064516 64 59.8709677 0 59.8709677 26.8387097 13.4193548 38.1935484 33.0322581"></polyline>
                <polyline id="Shape" points="26.8387097 13.4193548 26.8387097 0 40.2580645 0 35.0967742 5.16129032 40.2580645 10.3225806 29.9354839 10.3225806"></polyline>
                <polyline id="Shape" stroke-linejoin="round" points="18.5806452 27.8709677 23.7419355 25.8064516 26.8387097 27.8709677 29.9354839 25.8064516 35.0967742 27.8709677"></polyline>
                <polyline id="Shape" stroke-linejoin="round" points="40.2580645 38.1935484 43.3548387 38.1935484 46.4516129 40.2580645 49.5483871 38.1935484 52.6451613 38.1935484"></polyline>
                <path d="M26.8387097,30.9677419 L26.8387097,33.0322581" id="Shape" stroke-linejoin="round"></path>
                <path d="M26.8387097,35.0967742 L26.8387097,37.1612903" id="Shape" stroke-linejoin="round"></path>
                <path d="M26.8387097,39.2258065 L26.8387097,41.2903226" id="Shape" stroke-linejoin="round"></path>
            </g>
        </g>
    </g>
</svg>