<?xml version="1.0" encoding="UTF-8"?>
<svg width="64px" height="64px" viewBox="0 0 64 64" version="1.1" xmlns="http://www.w3.org/2000/svg" xmlns:xlink="http://www.w3.org/1999/xlink">
    <!-- Generator: Sketch Beta 49.1 (51145) - http://www.bohemiancoding.com/sketch -->
    <title>suppressions-blue</title>
    <desc>Created with Sketch Beta.</desc>
    <defs></defs>
    <g id="CX" stroke="none" stroke-width="1" fill="none" fill-rule="evenodd">
        <g id="2-pt-lines-size-48px-and-up" transform="translate(-53.000000, -533.000000)" fill="#00BF6F" fill-rule="nonzero">
            <g id="suppressions-blue" transform="translate(53.000000, 533.000000)">
                <path d="M38.2928932,19.2928932 C38.6834175,18.9023689 39.3165825,18.9023689 39.7071068,19.2928932 L44.7071068,24.2928932 C45.097631,24.6834175 45.097631,25.3165825 44.7071068,25.7071068 L38.4142136,32 L44.7071068,38.2928932 C45.097631,38.6834175 45.097631,39.3165825 44.7071068,39.7071068 L39.7071068,44.7071068 C39.3165825,45.097631 38.6834175,45.097631 38.2928932,44.7071068 L32,38.4142136 L25.7071068,44.7071068 C25.3165825,45.097631 24.6834175,45.097631 24.2928932,44.7071068 L19.2928932,39.7071068 C18.9023689,39.3165825 18.9023689,38.6834175 19.2928932,38.2928932 L25.5857864,32 L19.2928932,25.7071068 C18.9023689,25.3165825 18.9023689,24.6834175 19.2928932,24.2928932 L24.2928932,19.2928932 C24.6834175,18.9023689 25.3165825,18.9023689 25.7071068,19.2928932 L32,25.5857864 L38.2928932,19.2928932 Z M39,21.4142136 L32.7071068,27.7071068 C32.3165825,28.0976311 31.6834175,28.0976311 31.2928932,27.7071068 L25,21.4142136 L21.4142136,25 L27.7071068,31.2928932 C28.0976311,31.6834175 28.0976311,32.3165825 27.7071068,32.7071068 L21.4142136,39 L25,42.5857864 L31.2928932,36.2928932 C31.6834175,35.9023689 32.3165825,35.9023689 32.7071068,36.2928932 L39,42.5857864 L42.5857864,39 L36.2928932,32.7071068 C35.9023689,32.3165825 35.9023689,31.6834175 36.2928932,31.2928932 L42.5857864,25 L39,21.4142136 Z" id="Shape"></path>
                <polygon id="Shape" points="31 58 33 58 33 56 31 56"></polygon>
                <polygon id="Shape" points="31 8 33 8 33 6 31 6"></polygon>
                <polygon id="Shape" points="6 33 8 33 8 31 6 31"></polygon>
                <polygon id="Shape" points="56 33 58 33 58 31 56 31"></polygon>
                <path d="M32,64 C14.326888,64 0,49.673112 0,32 C0,14.326888 14.326888,0 32,0 C49.673112,0 64,14.326888 64,32 C64,49.673112 49.673112,64 32,64 Z M32,62 C48.5685425,62 62,48.5685425 62,32 C62,15.4314575 48.5685425,2 32,2 C15.4314575,2 2,15.4314575 2,32 C2,48.5685425 15.4314575,62 32,62 Z" id="Shape"></path>
            </g>
        </g>
    </g>
</svg>