<?xml version="1.0" encoding="UTF-8"?>
<svg width="65px" height="57px" viewBox="0 0 65 57" version="1.1" xmlns="http://www.w3.org/2000/svg" xmlns:xlink="http://www.w3.org/1999/xlink">
    <!-- Generator: Sketch Beta 49.1 (51145) - http://www.bohemiancoding.com/sketch -->
    <title>13-survey-list</title>
    <desc>Created with Sketch Beta.</desc>
    <defs></defs>
    <g id="Engage" stroke="none" stroke-width="1" fill="none" fill-rule="evenodd">
        <g id="2-pt-lines-size-48px-and-up" transform="translate(-494.000000, -1215.000000)" stroke="#00BF6F" stroke-width="2">
            <g id="13-survey-list" transform="translate(494.000000, 1216.000000)">
                <path d="M55.8730159,0 L55.8730159,44.6984127" id="Shape"></path>
                <path d="M9.14285714,0 L9.14285714,44.6984127" id="Shape"></path>
                <path d="M6.0952381,44.6984127 L58.9206349,44.6984127 C61.7264762,44.6984127 64,42.4248889 64,39.6190476 L64,5.07936508 C64,2.27352381 61.7264762,0 58.9206349,0 L6.0952381,0 C3.28939683,0 1.01587302,2.27352381 1.01587302,5.07936508 L1.01587302,39.6190476 C1.01587302,42.4248889 3.28939683,44.6984127 6.0952381,44.6984127 Z" id="Shape"></path>
                <path d="M59.9365079,20.3174603 L59.9365079,24.3809524" id="Shape"></path>
                <path d="M5.07936508,17.2698413 L5.07936508,27.4285714" id="Shape"></path>
                <g id="Group" transform="translate(0.000000, 48.761905)">
                    <polygon id="Shape" points="64 6.0952381 5.07936508 6.0952381 2.03174603 3.04761905 2.03174603 3.04761905 5.07936508 0 64 0"></polygon>
                    <path d="M2.03174603,3.04761905 L0,3.04761905" id="Shape"></path>
                </g>
                <path d="M55.8730159,48.7619048 L55.8730159,54.8571429" id="Shape"></path>
                <path d="M9.14285714,48.7619048 L9.14285714,54.8571429" id="Shape"></path>
                <path d="M25.3968254,48.7619048 L25.3968254,54.8571429" id="Shape"></path>
                <path d="M12.1904762,51.8095238 L14.2222222,51.8095238" id="Shape"></path>
                <path d="M16.2539683,51.8095238 L18.2857143,51.8095238" id="Shape"></path>
                <path d="M20.3174603,51.8095238 L22.3492063,51.8095238" id="Shape"></path>
                <g id="Group" transform="translate(15.238095, 10.158730)" stroke-linejoin="round">
                    <polyline id="Shape" points="7.11111111 0 3.04761905 4.06349206 0 1.01587302"></polyline>
                    <path d="M11.1746032,0 L19.3015873,0" id="Shape"></path>
                    <path d="M11.1746032,4.06349206 L27.4285714,4.06349206" id="Shape"></path>
                    <polyline id="Shape" points="7.11111111 10.1587302 3.04761905 14.2222222 0 11.1746032"></polyline>
                    <path d="M11.1746032,10.1587302 L35.5555556,10.1587302" id="Shape"></path>
                    <path d="M11.1746032,14.2222222 L17.2698413,14.2222222" id="Shape"></path>
                    <path d="M11.1746032,20.3174603 L25.3968254,20.3174603" id="Shape"></path>
                    <path d="M27.4285714,20.3174603 L35.5555556,20.3174603" id="Shape"></path>
                    <path d="M11.1746032,24.3809524 L35.5555556,24.3809524" id="Shape"></path>
                    <polyline id="Shape" points="7.11111111 20.3174603 3.04761905 24.3809524 0 21.3333333"></polyline>
                    <path d="M19.3015873,14.2222222 L21.3333333,14.2222222" id="Shape"></path>
                    <path d="M23.3650794,14.2222222 L31.4920635,14.2222222" id="Shape"></path>
                    <path d="M21.3333333,0 L35.5555556,0" id="Shape"></path>
                </g>
            </g>
        </g>
    </g>
</svg>