<?xml version="1.0" encoding="UTF-8"?>
<svg width="56px" height="52px" viewBox="0 0 56 52" version="1.1" xmlns="http://www.w3.org/2000/svg" xmlns:xlink="http://www.w3.org/1999/xlink">
    <!-- Generator: Sketch Beta 49.1 (51145) - http://www.bohemiancoding.com/sketch -->
    <title>tags-blue</title>
    <desc>Created with Sketch Beta.</desc>
    <defs></defs>
    <g id="CX" stroke="none" stroke-width="1" fill="none" fill-rule="evenodd">
        <g id="2-pt-lines-size-48px-and-up" transform="translate(-283.000000, -533.000000)" fill="#00BF6F" fill-rule="nonzero">
            <g id="tags-blue" transform="translate(283.000000, 533.000000)">
                <path d="M37,16 C34.243,16 32,13.757 32,11 C32,8.243 34.243,6 37,6 C39.757,6 42,8.243 42,11 C42,13.757 39.757,16 37,16 Z M37,8 C35.346,8 34,9.346 34,11 C34,12.654 35.346,14 37,14 C38.654,14 40,12.654 40,11 C40,9.346 38.654,8 37,8 Z M17.042,48 C15.972,48 14.966,47.583 14.208,46.826 L1.174,33.791 C0.417,33.034 0,32.027 0,30.957 C0,29.887 0.417,28.88 1.174,28.124 L27.107,1.188 C27.878,0.417 28.885,0 29.955,0 L43.992,0 C46.202,0 48,1.798 48,4.008 L48,18.045 C48,19.114 47.583,20.12 46.827,20.878 L19.862,46.84 C19.119,47.583 18.113,48 17.042,48 Z M29.955,2 C29.419,2 28.914,2.209 28.535,2.588 L2.602,29.523 C2.209,29.917 2,30.421 2,30.957 C2,31.493 2.209,31.998 2.588,32.377 L15.622,45.412 C16.38,46.17 17.704,46.17 18.462,45.412 L45.426,19.451 C45.791,19.085 46,18.581 46,18.045 L46,4.008 C46,2.9 45.1,2 43.992,2 L29.955,2 Z M25.121,52 C24.053,52 23.048,51.584 22.293,50.828 L21.254,49.666 C20.886,49.254 20.922,48.621 21.334,48.254 C21.746,47.889 22.379,47.922 22.746,48.334 L23.746,49.455 C24.487,50.193 25.755,50.193 26.535,49.414 L53.428,23.521 C53.766,23.185 54,22.567 54,22 L54,8 C54,6.897 53.104,6 52,6 L51,6 C50.447,6 50,5.553 50,5 C50,4.447 50.447,4 51,4 L52,4 C54.206,4 56,5.794 56,8 L56,22 C56,23.097 55.551,24.227 54.828,24.949 L27.936,50.842 C27.194,51.583 26.189,51.999 25.121,52 Z" id="Shape"></path>
            </g>
        </g>
    </g>
</svg>