<?xml version="1.0" encoding="UTF-8"?>
<svg width="50px" height="46px" viewBox="0 0 50 46" version="1.1" xmlns="http://www.w3.org/2000/svg" xmlns:xlink="http://www.w3.org/1999/xlink">
    <!-- Generator: Sketch Beta 49.1 (51145) - http://www.bohemiancoding.com/sketch -->
    <title>Group</title>
    <desc>Created with Sketch Beta.</desc>
    <defs></defs>
    <g id="Modals" stroke="none" stroke-width="1" fill="none" fill-rule="evenodd" stroke-linejoin="round">
        <g id="Subnav-w/-Filters-Copy-3" transform="translate(-1514.000000, -258.000000)" stroke="#00BF6F" stroke-width="2">
            <g id="Group-12" transform="translate(1476.000000, 227.000000)">
                <g id="Group" transform="translate(39.000000, 32.000000)">
                    <path d="M0,43.5 L48,43.5" id="Shape"></path>
                    <path d="M13.5,43.5 L13.5,8.25" id="Shape"></path>
                    <path d="M6.75,21.75 C6.75,14.70825 8.25,9 13.5,9 C18.75,9 20.25,14.70825 20.25,21.75" id="Shape"></path>
                    <path d="M0.75,21.75 L26.25,21.75 C26.25,14.70825 20.54175,9 13.5,9 C6.45825,9 0.75,14.70825 0.75,21.75 Z" id="Shape"></path>
                    <polyline id="Shape" points="17.25 39 36.75 39 41.25 43.5"></polyline>
                    <path d="M21.75,39 L17.25,43.5" id="Shape"></path>
                    <path d="M24.75,39 L18,32.25" id="Shape"></path>
                    <polyline id="Shape" points="32.25 39 29.25 36 21.75 36"></polyline>
                    <path d="M31.5,7.5 C36,7.5 36.75,10.5 36.75,10.5 C36.75,10.5 37.5,7.5 42,7.5" id="Shape"></path>
                    <path d="M36.75,10.5 L36.75,11.25" id="Shape"></path>
                    <path d="M21.31125,8.24475 C23.36025,3.39975 28.158,0 33.75,0 C41.20575,0 47.25,6.04425 47.25,13.5 C47.25,20.95575 41.20575,27 33.75,27 C30.81225,27 28.0935,26.061 25.87725,24.46725" id="Shape"></path>
                </g>
            </g>
        </g>
    </g>
</svg>