<?xml version="1.0" encoding="UTF-8"?>
<svg width="64px" height="52px" viewBox="0 0 64 52" version="1.1" xmlns="http://www.w3.org/2000/svg" xmlns:xlink="http://www.w3.org/1999/xlink">
    <!-- Generator: Sketch Beta 49.1 (51145) - http://www.bohemiancoding.com/sketch -->
    <title>team-blue</title>
    <desc>Created with Sketch Beta.</desc>
    <defs></defs>
    <g id="CX" stroke="none" stroke-width="1" fill="none" fill-rule="evenodd">
        <g id="2-pt-lines-size-48px-and-up" transform="translate(-399.000000, -533.000000)" fill="#00BF6F" fill-rule="nonzero">
            <g id="team-blue" transform="translate(399.000000, 533.000000)">
                <g id="Group" transform="translate(44.000000, 13.000000)">
                    <path d="M13,6.5 C13,3.13437475 12.0925002,2 9,2 C5.9074998,2 5,3.13437475 5,6.5 C5,9.66385169 6.71227376,12 9,12 C11.2877262,12 13,9.66385169 13,6.5 Z M15,6.5 C15,10.6579205 12.5504317,14 9,14 C5.44956835,14 3,10.6579205 3,6.5 C3,2.11562525 4.6925002,0 9,0 C13.3074998,0 15,2.11562525 15,6.5 Z" id="Shape"></path>
                    <polygon id="Shape" points="1.514 15.857 6.514 12.857 5.486 11.143 0.486 14.143"></polygon>
                    <path d="M18,16.1551388 C18,16.3259058 18,16.7024148 18,18 C18,19.1136728 17.3878955,20 17,20 L11,20 L11,22 L17,22 C18.6839277,22 20,20.0943272 20,18 L20,15.4196775 L12.4961389,11.1317569 L11.5038611,12.8682431 L18,16.5803225 L18,16.1551388 Z" id="Shape"></path>
                </g>
                <g id="Group" transform="translate(0.000000, 13.000000)">
                    <path d="M5,6.5 C5,2.11562525 6.6925002,0 11,0 C15.3074998,0 17,2.11562525 17,6.5 C17,10.6579205 14.5504317,14 11,14 C7.44956835,14 5,10.6579205 5,6.5 Z M7,6.5 C7,9.66385169 8.71227376,12 11,12 C13.2877262,12 15,9.66385169 15,6.5 C15,3.13437475 14.0925002,2 11,2 C7.9074998,2 7,3.13437475 7,6.5 Z" id="Shape"></path>
                    <polygon id="Shape" points="19.514 14.143 14.514 11.143 13.486 12.857 18.486 15.857"></polygon>
                    <path d="M2,16.5803225 L8.49613894,12.8682431 L7.50386106,11.1317569 L0,15.4196775 L0,18 C0,20.0943272 1.31607234,22 3,22 L9,22 L9,20 L3,20 C2.61210445,20 2,19.1136728 2,18 C2,16.7024148 2,16.3259058 2,16.1551388 L2,16.5803225 Z" id="Shape"></path>
                </g>
                <g id="Group" transform="translate(9.000000, 0.000000)">
                    <path d="M2,52 L2,43 C2,37.5644031 3.64606234,35.7767657 9.01114578,33.706381 C9.30921733,33.5913553 10.3666873,33.1893866 10.5260876,33.1283018 C11.1482594,32.8898757 11.642513,32.6948142 12.1280692,32.4937316 C13.3788033,31.975767 14.4593906,31.4606708 15.4961389,30.8682431 L14.5038611,29.1317569 C13.5477438,29.6781096 12.5410008,30.1580056 11.3628366,30.6459169 C10.8962263,30.8391535 10.4173664,31.0281397 9.81040686,31.2607363 C9.65541053,31.3201333 8.59488002,31.7232654 8.29110031,31.840494 C2.23243669,34.1785311 0,36.602976 0,43 L0,52 L2,52 Z M30.5038611,30.8682431 C31.5406094,31.4606708 32.6211967,31.975767 33.8719308,32.4937316 C34.357487,32.6948142 34.8517406,32.8898757 35.4739124,33.1283018 C35.6333127,33.1893866 36.6907827,33.5913553 36.9888542,33.706381 C42.3539377,35.7767657 44,37.5644031 44,43 L44,52 L46,52 L46,43 C46,36.602976 43.7675633,34.1785311 37.7088997,31.840494 C37.40512,31.7232654 36.3445895,31.3201333 36.1895931,31.2607363 C35.5826336,31.0281397 35.1037737,30.8391535 34.6371634,30.6459169 C33.4589992,30.1580056 32.4522562,29.6781096 31.4961389,29.1317569 L30.5038611,30.8682431 Z" id="Shape"></path>
                    <path d="M29.7132043,29.8725821 L28.5266109,28.0926919 L23,29.0137938 L17.4733891,28.0926919 L16.2867957,29.8725821 L19.197453,32.7832395 L23,30.881966 L26.802547,32.7832395 L29.7132043,29.8725821 Z M29.4733891,25.9073081 L32.2867957,30.1274179 L27.197453,35.2167605 L23,33.118034 L18.802547,35.2167605 L13.7132043,30.1274179 L16.5266109,25.9073081 L23,26.9862062 L29.4733891,25.9073081 Z" id="Shape"></path>
                    <polygon id="Shape" points="27 23 27 27 29 27 29 23"></polygon>
                    <polygon id="Shape" points="19 27 19 23 17 23 17 27"></polygon>
                    <polygon id="Shape" points="22 42 24 42 24 40 22 40"></polygon>
                    <polygon id="Shape" points="22 38 24 38 24 36 22 36"></polygon>
                    <path d="M33,10 L33,14 L32.9899495,14.1414214 C32.6144078,16.770213 31.9407955,18.9257723 31.0482176,20.6514229 C30.1582787,22.3719715 29.2321634,23.3804081 28.5547002,23.8320503 L28.4472136,23.8944272 C27.9071809,24.1644435 27.2930545,24.3793878 26.6175356,24.5482675 C25.8211929,24.7473532 24.9786448,24.8737354 24.137733,24.9438114 C23.633308,24.9858468 23.2370183,25 23,25 C22.7629817,25 22.366692,24.9858468 21.862267,24.9438114 C21.0213552,24.8737354 20.1788071,24.7473532 19.3824644,24.5482675 C18.7069455,24.3793878 18.0928191,24.1644435 17.5527864,23.8944272 L17.4452998,23.8320503 C16.7678366,23.3804081 15.8417213,22.3719715 14.9517824,20.6514229 C14.0592045,18.9257723 13.3855922,16.770213 13.0100505,14.1414214 L13,14 L13,10 C13,3.37271525 16.3727153,0 23,0 C29.6272847,0 33,3.37271525 33,10 Z M31,10 C31,4.47728475 28.5227153,2 23,2 C17.4772847,2 15,4.47728475 15,10 L15,13.9282883 C15.3461342,16.3072183 15.9483982,18.2249261 16.7282176,19.7325771 C17.1598009,20.5669714 17.614955,21.2163246 18.0615299,21.702595 C18.2708376,21.9305078 18.4280519,22.0717208 18.5140525,22.1383307 C18.8980394,22.3228151 19.3544113,22.4797014 19.8675356,22.6079825 C20.5477554,22.7780374 21.2872385,22.8889599 22.028358,22.9507199 C22.4731518,22.987786 22.8151433,23 23,23 C23.1848567,23 23.5268482,22.987786 23.971642,22.9507199 C24.7127615,22.8889599 25.4522446,22.7780374 26.1324644,22.6079825 C26.6455887,22.4797014 27.1019606,22.3228151 27.4859475,22.1383307 C27.5719481,22.0717208 27.7291624,21.9305078 27.9384701,21.702595 C28.385045,21.2163246 28.8401991,20.5669714 29.2717824,19.7325771 C30.0516018,18.2249261 30.6538658,16.3072183 31,13.9282883 L31,10 Z" id="Shape"></path>
                    <polygon id="Shape" points="28.046 13.095 32.447 10.894 31.553 9.106 27.954 10.905 17.954 6.905 13.553 9.106 14.447 10.894 18.046 9.095"></polygon>
                    <polygon id="Shape" points="10 52 10 44 8 44 8 52"></polygon>
                    <polygon id="Shape" points="38 52 38 44 36 44 36 52"></polygon>
                </g>
            </g>
        </g>
    </g>
</svg>