<?xml version="1.0" encoding="UTF-8"?>
<svg width="64px" height="64px" viewBox="0 0 64 64" version="1.1" xmlns="http://www.w3.org/2000/svg" xmlns:xlink="http://www.w3.org/1999/xlink">
    <!-- Generator: Sketch Beta 49.1 (51145) - http://www.bohemiancoding.com/sketch -->
    <title>44-winners-podium</title>
    <desc>Created with Sketch Beta.</desc>
    <defs></defs>
    <g id="Engage" stroke="none" stroke-width="1" fill="none" fill-rule="evenodd">
        <g id="2-pt-lines-size-48px-and-up" transform="translate(-265.000000, -1209.000000)" stroke="#00BF6F" stroke-width="2">
            <g id="44-winners-podium" transform="translate(265.000000, 1210.000000)">
                <g id="Group" transform="translate(23.000000, 0.000000)">
                    <path d="M9,33 L9,50" id="Shape"></path>
                    <path d="M9,15 L9,17" id="Shape"></path>
                    <path d="M4,30 L14,30" id="Shape"></path>
                    <path d="M4,32 L4,50" id="Shape"></path>
                    <path d="M14,17 L14,32 L18,32 L18,16 C18,13.791 16.209,12 14,12 L4,12 C1.791,12 0,13.791 0,16 L0,32 L4,32 L4,17" id="Shape"></path>
                    <path d="M14,50 L14,32" id="Shape"></path>
                    <circle id="Oval" cx="9" cy="4" r="4"></circle>
                </g>
                <g id="Group" transform="translate(1.000000, 8.000000)">
                    <path d="M9,33 L9,50" id="Shape"></path>
                    <path d="M9,15 L9,17" id="Shape"></path>
                    <path d="M4,30 L14,30" id="Shape"></path>
                    <path d="M4,32 L4,50" id="Shape"></path>
                    <path d="M14,17 L14,32 L18,32 L18,16 C18,13.791 16.209,12 14,12 L4,12 C1.791,12 0,13.791 0,16 L0,32 L4,32 L4,17" id="Shape"></path>
                    <path d="M14,50 L14,32" id="Shape"></path>
                    <circle id="Oval" cx="9" cy="4" r="4"></circle>
                </g>
                <g id="Group" transform="translate(45.000000, 6.000000)">
                    <path d="M9,33 L9,50" id="Shape"></path>
                    <path d="M9,15 L9,17" id="Shape"></path>
                    <path d="M4,30 L14,30" id="Shape"></path>
                    <path d="M4,32 L4,50" id="Shape"></path>
                    <path d="M14,17 L14,32 L18,32 L18,16 C18,13.791 16.209,12 14,12 L4,12 C1.791,12 0,13.791 0,16 L0,32 L4,32 L4,17" id="Shape"></path>
                    <path d="M14,50 L14,32" id="Shape"></path>
                    <circle id="Oval" cx="9" cy="4" r="4"></circle>
                </g>
                <path d="M0,62 L29,62" id="Shape"></path>
                <polyline id="Shape" points="21 59 21 50 43 50 43 59"></polyline>
                <polyline id="Shape" points="46 56 61 56 61 62"></polyline>
                <polyline id="Shape" points="3 62 3 58 18 58"></polyline>
                <polyline id="Shape" points="29 54 32 54 32 62 64 62"></polyline>
            </g>
        </g>
    </g>
</svg>