<?xml version="1.0" encoding="UTF-8"?>
<svg width="62px" height="64px" viewBox="0 0 62 64" version="1.1" xmlns="http://www.w3.org/2000/svg" xmlns:xlink="http://www.w3.org/1999/xlink">
    <!-- Generator: Sketch Beta 49.1 (51145) - http://www.bohemiancoding.com/sketch -->
    <title>you-blue</title>
    <desc>Created with Sketch Beta.</desc>
    <defs></defs>
    <g id="CX" stroke="none" stroke-width="1" fill="none" fill-rule="evenodd">
        <g id="2-pt-lines-size-48px-and-up" transform="translate(-523.000000, -533.000000)" fill="#00BF6F" fill-rule="nonzero">
            <g id="you-blue" transform="translate(523.000000, 533.000000)">
                <path d="M26.7809031,3.686231 C28.1515642,2.56577 29.5697056,2 31,2 C37.9625736,2 44,15.3685445 44,32 C44,48.6314555 37.9625736,62 31,62 C24.0374264,62 18,48.6314555 18,32 C18,25.1309187 19.0266217,18.616084 20.8806226,13.3310231 L18.9933774,12.6689769 C17.0617805,18.1752344 16,24.9131837 16,32 C16,49.6104458 22.498529,64 31,64 C39.501471,64 46,49.6104458 46,32 C46,14.3895542 39.501471,0 31,0 C29.0797349,0 27.2250987,0.73991037 25.5150969,2.137769 L26.7809031,3.686231 Z" id="Shape"></path>
                <path d="M57.7007997,43.0255443 C57.8660793,44.5534826 57.62424,45.8851188 56.9801726,46.9996573 C53.4986974,53.0296513 38.9030698,51.574229 24.4999837,43.2589652 C10.0971561,34.9438506 1.53768441,23.0297619 5.0190219,17.0000061 C8.50031446,10.9703281 23.0969691,12.4257934 37.5000163,20.7410348 C43.4887188,24.1998944 48.6445956,28.3773618 52.2967332,32.6516109 L53.8172668,31.3523891 C50.0115338,26.8983806 44.6788424,22.5776521 38.5001389,19.0090548 C23.2491135,10.2042543 7.53770708,8.63763458 3.2869781,15.9999939 C-0.963815789,23.3624657 8.24934773,36.1864403 23.5000163,44.9910348 C38.7509273,53.7957693 54.4613018,55.36235 58.7120219,48.0000061 C59.5791733,46.4994278 59.8982142,44.7426983 59.6892003,42.8104557 L57.7007997,43.0255443 Z" id="Shape"></path>
                <path d="M2.31086236,42.807878 C2.10089005,44.7384884 2.42004869,46.4967259 3.28672768,47.9995721 C7.53770708,55.3623654 23.2491135,53.7957457 38.4999837,44.9910348 C53.7506523,36.1864403 62.9638158,23.3624657 58.7130219,15.9999939 C54.4622929,8.63763458 38.7508865,10.2042543 23.5000163,19.0089652 C17.321083,22.5776952 11.9893807,26.8974725 8.18472031,31.3504041 L9.70527969,32.6495959 C13.3563261,28.3764523 18.511205,24.1999384 24.5001389,20.7409452 C38.9030309,12.4257934 53.4996855,10.9703281 56.9809781,17.0000061 C60.4623156,23.0297619 51.9028439,34.9438506 37.5000163,43.2589652 C23.0969691,51.5742066 8.50031446,53.0296719 5.0190219,46.9999939 C4.37516016,45.883519 4.13315139,44.5502982 4.29913764,43.024122 L2.31086236,42.807878 Z" id="Shape"></path>
                <path d="M4,44 C1.790861,44 0,42.209139 0,40 C0,37.790861 1.790861,36 4,36 C6.209139,36 8,37.790861 8,40 C8,42.209139 6.209139,44 4,44 Z M4,42 C5.1045695,42 6,41.1045695 6,40 C6,38.8954305 5.1045695,38 4,38 C2.8954305,38 2,38.8954305 2,40 C2,41.1045695 2.8954305,42 4,42 Z M58,44 C55.790861,44 54,42.209139 54,40 C54,37.790861 55.790861,36 58,36 C60.209139,36 62,37.790861 62,40 C62,42.209139 60.209139,44 58,44 Z M58,42 C59.1045695,42 60,41.1045695 60,40 C60,38.8954305 59.1045695,38 58,38 C56.8954305,38 56,38.8954305 56,40 C56,41.1045695 56.8954305,42 58,42 Z M24,9 C21.790861,9 20,7.209139 20,5 C20,2.790861 21.790861,1 24,1 C26.209139,1 28,2.790861 28,5 C28,7.209139 26.209139,9 24,9 Z M24,7 C25.1045695,7 26,6.1045695 26,5 C26,3.8954305 25.1045695,3 24,3 C22.8954305,3 22,3.8954305 22,5 C22,6.1045695 22.8954305,7 24,7 Z" id="Shape"></path>
                <g id="Group" transform="translate(21.000000, 21.000000)">
                    <path d="M2,19 C2,16.7293313 2.94414754,15.1557521 4.5547002,14.0820503 C5.13127639,13.6976662 5.75501945,13.4065861 6.37872777,13.1986833 C6.74763767,13.0757133 7.02566629,13.009516 7.16439899,12.9863939 L6.83560101,11.0136061 C5.95816605,11.1598452 4.70674697,11.5769849 3.4452998,12.4179497 C1.30585246,13.8442479 0,16.0206687 0,19 L2,19 Z M20,19 C20,16.0206687 18.6941475,13.8442479 16.5547002,12.4179497 C15.293253,11.5769849 14.041834,11.1598452 13.164399,11.0136061 L12.835601,12.9863939 C12.9743337,13.009516 13.2523623,13.0757133 13.6212722,13.1986833 C14.2449805,13.4065861 14.8687236,13.6976662 15.4452998,14.0820503 C17.0558525,15.1557521 18,16.7293313 18,19 L20,19 Z" id="Shape"></path>
                    <path d="M14,6.5 C14,3.13437475 13.0925002,2 10,2 C6.9074998,2 6,3.13437475 6,6.5 C6,9.66385169 7.71227376,12 10,12 C12.2877262,12 14,9.66385169 14,6.5 Z M16,6.5 C16,10.6579205 13.5504317,14 10,14 C6.44956835,14 4,10.6579205 4,6.5 C4,2.11562525 5.6925002,0 10,0 C14.3074998,0 16,2.11562525 16,6.5 Z" id="Shape"></path>
                </g>
            </g>
        </g>
    </g>
</svg>