<?xml version="1.0" encoding="UTF-8"?>
<svg width="98px" height="24px" viewBox="0 0 98 24" version="1.1" xmlns="http://www.w3.org/2000/svg" xmlns:xlink="http://www.w3.org/1999/xlink">
    <!-- Generator: Sketch Beta 44 (41325) - http://www.bohemiancoding.com/sketch -->
    <title>Engage-logo-white</title>
    <desc>Created with Sketch Beta.</desc>
    <defs>
        <polygon id="path-1" points="16.2583562 0.142684932 0.0197260274 0.142684932 0.0197260274 22.8088767 32.4969863 22.8088767 32.4969863 0.142684932 16.2583562 0.142684932"></polygon>
        <polygon id="path-3" points="39.1985753 12.8021918 0.0391232877 12.8021918 0.0391232877 0.100273973 39.1985753 0.100273973"></polygon>
    </defs>
    <g id="(WIP)-Analyze-Final" stroke="none" stroke-width="1" fill="none" fill-rule="evenodd">
        <g id="Summary" transform="translate(-80.000000, -10.000000)">
            <g id="Navigation">
                <g id="Top-Navigation">
                    <g id="Engage-logo-white" transform="translate(80.000000, 10.000000)">
                        <g id="Group-3">
                            <mask id="mask-2" fill="white">
                                <use xlink:href="#path-1"></use>
                            </mask>
                            <g id="Clip-2"></g>
                            <path d="M28.7326027,18.048 C28.4416438,18.048 28.1766575,17.9362192 27.9770959,17.7576986 C28.0451507,17.1724932 28.0905205,16.5800548 28.0977534,15.978411 C28.2802192,15.8567671 28.4985205,15.7824658 28.7326027,15.7824658 C29.3552877,15.7824658 29.8645479,16.2913973 29.8645479,16.9176986 C29.8645479,17.5463014 29.3552877,18.048 28.7326027,18.048 Z M3.76438356,18.048 C3.1420274,18.048 2.63243836,17.5463014 2.63243836,16.9176986 C2.63243836,16.2913973 3.1420274,15.7824658 3.76438356,15.7824658 C3.99846575,15.7824658 4.21709589,15.8567671 4.39923288,15.978411 C4.40646575,16.5800548 4.45216438,17.1724932 4.51989041,17.7576986 C4.32032877,17.9362192 4.05534247,18.048 3.76438356,18.048 Z M28.6586301,13.0770411 C28.3403836,13.0770411 28.0339726,13.1201096 27.7403836,13.1917808 C26.6127123,8.72975342 22.9476164,5.27736986 18.3692055,4.46071233 C18.1653699,4.42389041 17.9806027,4.39693151 17.7728219,4.37063014 C17.8073425,3.25282192 17.8592877,1.96076712 19.5037808,0.798246575 L19.243726,0.142684932 C19.243726,0.142684932 16.0392329,1.13819178 15.667726,3.88043836 C15.5079452,3.13446575 14.0136986,2.20109589 13.2739726,2.02389041 L12.9057534,2.61731507 C12.9057534,2.61731507 13.8864658,3.10783562 14.1254795,4.46136986 L14.1251507,4.46136986 L14.1254795,4.46136986 C9.54838356,5.27868493 5.88427397,8.73073973 4.75660274,13.1917808 C4.4630137,13.1201096 4.15693151,13.0770411 3.83835616,13.0770411 C1.72241096,13.0770411 0,14.7958356 0,16.9180274 C0,19.0352877 1.72241096,20.7573699 3.83835616,20.7573699 C4.33380822,20.7573699 4.80624658,20.658411 5.24054795,20.4884384 C5.57161644,21.3110137 5.98947945,22.0915068 6.48789041,22.8088767 L9.6739726,20.6610411 L9.64668493,20.6252055 C8.80405479,19.5422466 8.28854795,17.9480548 8.20241096,16.3610959 C8.10673973,14.6107397 8.53413699,12.8715616 9.65128767,11.8497534 C11.9566027,9.888 14.4650959,10.7822466 16.0372603,12.6627945 L16.459726,12.6627945 C18.0318904,10.7822466 20.5407123,9.888 22.8456986,11.8497534 C23.9631781,12.8715616 24.3905753,14.6107397 24.2949041,16.3610959 C24.2081096,17.9480548 23.6929315,19.5422466 22.8499726,20.6252055 L22.8230137,20.6610411 L26.0090959,22.8088767 C26.5075068,22.0915068 26.9253699,21.3110137 27.2564384,20.4884384 C27.6907397,20.658411 28.1631781,20.7573699 28.6586301,20.7573699 C30.7745753,20.7573699 32.4969863,19.0352877 32.4969863,16.9180274 C32.4969863,14.7958356 30.7745753,13.0770411 28.6586301,13.0770411 L28.6586301,13.0770411 Z" id="Fill-1" fill="#FFFFFF" mask="url(#mask-2)"></path>
                        </g>
                        <polyline id="Fill-4" fill="#FFFFFF" points="37.1427945 8.11134247 45.5566027 8.11134247 45.5566027 10.008 39.2968767 10.008 39.2968767 13.1927671 45.427726 13.1927671 45.427726 15.0890959 39.2968767 15.0890959 39.2968767 18.4954521 45.5566027 18.4954521 45.5566027 20.3917808 37.1427945 20.3917808 37.1427945 8.11134247"></polyline>
                        <g id="Group-10" transform="translate(47.671233, 11.178082)">
                            <mask id="mask-4" fill="white">
                                <use xlink:href="#path-3"></use>
                            </mask>
                            <g id="Clip-6"></g>
                            <path d="M6.04109589,3.65326027 C6.04109589,2.27243836 5.34147945,1.81249315 4.25523288,1.81249315 C3.26136986,1.81249315 2.41446575,2.40164384 1.97227397,3.00887671 L1.97227397,9.21369863 L0.0391232877,9.21369863 L0.0391232877,0.321205479 L1.97227397,0.321205479 L1.97227397,1.536 C2.56142466,0.836712329 3.70323288,0.100273973 5.10246575,0.100273973 C7.01720548,0.100273973 7.97457534,1.13128767 7.97457534,2.95364384 L7.97457534,9.21369863 L6.04109589,9.21369863 L6.04109589,3.65326027" id="Fill-5" fill="#FFFFFF" mask="url(#mask-4)"></path>
                            <path d="M16.7191233,3.00887671 C16.2956712,2.34641096 15.3383014,1.81249315 14.4361644,1.81249315 C12.9083836,1.81249315 11.9326027,2.95364384 11.9326027,4.66586301 C11.9326027,6.37808219 12.9083836,7.51956164 14.4361644,7.51956164 C15.3383014,7.51956164 16.2956712,6.98564384 16.7191233,6.32317808 L16.7191233,3.00887671 Z M11.2694795,10.0970959 C11.9878356,10.9259178 12.9083836,11.2389041 14.0866849,11.2389041 C15.3567123,11.2389041 16.7191233,10.6497534 16.7191233,8.82706849 L16.7191233,7.75923288 C16.0379178,8.64263014 15.0253151,9.23178082 13.8657534,9.23178082 C11.6008767,9.23178082 9.92547945,7.59353425 9.92547945,4.66586301 C9.92547945,1.79375342 11.5824658,0.100273973 13.8657534,0.100273973 C14.9888219,0.100273973 16.0010959,0.615780822 16.7191233,1.55473973 L16.7191233,0.321205479 L18.652274,0.321205479 L18.652274,8.75309589 C18.652274,11.9566027 16.277589,12.8219178 14.0866849,12.8219178 C12.5769863,12.8219178 11.4539178,12.4905205 10.3673425,11.4966575 L11.2694795,10.0970959 L11.2694795,10.0970959 Z" id="Fill-7" fill="#FFFFFF" mask="url(#mask-4)"></path>
                            <path d="M26.5873973,5.84416438 C26.1455342,5.23693151 25.3170411,4.92394521 24.470137,4.92394521 C23.3838904,4.92394521 22.5738082,5.54991781 22.5738082,6.52569863 C22.5738082,7.48306849 23.3838904,8.10871233 24.470137,8.10871233 C25.3170411,8.10871233 26.1455342,7.79605479 26.5873973,7.18816438 L26.5873973,5.84416438 Z M26.5873973,8.256 C25.9246027,9.01084932 24.893589,9.43430137 23.7152877,9.43430137 C22.2608219,9.43430137 20.6222466,8.45884932 20.6222466,6.48854795 C20.6222466,4.44526027 22.2608219,3.5980274 23.7152877,3.5980274 C24.9116712,3.5980274 25.9430137,3.98465753 26.5873973,4.73950685 L26.5873973,3.41424658 C26.5873973,2.38290411 25.7404932,1.75726027 24.5069589,1.75726027 C23.5127671,1.75726027 22.6474521,2.12515068 21.8741918,2.88032877 L21.0825205,1.536 C22.1135342,0.560547945 23.4023014,0.100273973 24.8199452,0.100273973 C26.7899178,0.100273973 28.5205479,0.928767123 28.5205479,3.32186301 L28.5205479,9.21369863 L26.5873973,9.21369863 L26.5873973,8.256 L26.5873973,8.256 Z" id="Fill-8" fill="#FFFFFF" mask="url(#mask-4)"></path>
                            <path d="M37.2657534,3.00887671 C36.8423014,2.34641096 35.8846027,1.81249315 34.9824658,1.81249315 C33.4546849,1.81249315 32.4789041,2.95364384 32.4789041,4.66586301 C32.4789041,6.37808219 33.4546849,7.51956164 34.9824658,7.51956164 C35.8846027,7.51956164 36.8423014,6.98564384 37.2657534,6.32317808 L37.2657534,3.00887671 Z M31.8157808,10.0970959 C32.534137,10.9259178 33.4546849,11.2389041 34.6329863,11.2389041 C35.9030137,11.2389041 37.2657534,10.6497534 37.2657534,8.82706849 L37.2657534,7.75923288 C36.5842192,8.64263014 35.5716164,9.23178082 34.4120548,9.23178082 C32.1471781,9.23178082 30.4721096,7.59353425 30.4721096,4.66586301 C30.4721096,1.79375342 32.1290959,0.100273973 34.4120548,0.100273973 C35.5351233,0.100273973 36.547726,0.615780822 37.2657534,1.55473973 L37.2657534,0.321205479 L39.1985753,0.321205479 L39.1985753,8.75309589 C39.1985753,11.9566027 36.8238904,12.8219178 34.6329863,12.8219178 C33.1232877,12.8219178 32.0002192,12.4905205 30.9136438,11.4966575 L31.8157808,10.0970959 L31.8157808,10.0970959 Z" id="Fill-9" fill="#FFFFFF" mask="url(#mask-4)"></path>
                        </g>
                        <path d="M90.8284932,15.2179726 L95.8359452,15.2179726 C95.7991233,14.1688767 95.0810959,12.8613699 93.3320548,12.8613699 C91.6750685,12.8613699 90.9202192,14.131726 90.8284932,15.2179726 Z M93.3320548,11.2783562 C96.0016438,11.2783562 97.713863,13.3219726 97.713863,16.1201096 L97.713863,16.5807123 L90.8465753,16.5807123 C90.993863,17.9247123 92.0067945,19.0293699 93.681863,19.0293699 C94.5471781,19.0293699 95.5781918,18.6792329 96.2041644,18.0532603 L97.0878904,19.3236164 C96.2041644,20.1708493 94.8969863,20.6123836 93.4793425,20.6123836 C90.8097534,20.6123836 88.8213699,18.7528767 88.8213699,15.9363288 C88.8213699,13.3584658 90.6992877,11.2783562 93.3320548,11.2783562 L93.3320548,11.2783562 Z" id="Fill-11" fill="#FFFFFF"></path>
                    </g>
                </g>
            </g>
        </g>
    </g>
</svg>