<?xml version="1.0" encoding="UTF-8"?>
<svg width="66px" height="65px" viewBox="0 0 66 65" version="1.1" xmlns="http://www.w3.org/2000/svg" xmlns:xlink="http://www.w3.org/1999/xlink">
    <!-- Generator: Sketch Beta 49.1 (51145) - http://www.bohemiancoding.com/sketch -->
    <title>02-focus-group</title>
    <desc>Created with Sketch Beta.</desc>
    <defs></defs>
    <g id="Engage" stroke="none" stroke-width="1" fill="none" fill-rule="evenodd">
        <g id="2-pt-lines-size-48px-and-up" transform="translate(-264.000000, -661.000000)" stroke="#00BF6F" stroke-width="2">
            <g id="02-focus-group" transform="translate(265.000000, 662.000000)">
                <g id="Group" transform="translate(4.129032, 29.056966)">
                    <path d="M14.4516129,5.70761839 C14.4516129,9.33973919 12.4252903,12.4529856 9.29032258,12.4529856 C6.15535484,12.4529856 4.12903226,9.33973919 4.12903226,5.70761839 C4.12903226,2.0754976 5.16129032,0 9.29032258,0 C13.4193548,0 14.4516129,2.0754976 14.4516129,5.70761839 Z" id="Shape"></path>
                    <path d="M12.3870968,11.4152368 L18.5806452,15.566232 C18.5806452,15.566232 18.5806452,15.9232176 18.5806452,17.6417296 C18.5806452,19.3612793 17.5483871,20.754976 16.516129,20.754976 L2.06451613,20.754976 C1.03225806,20.754976 0,19.3612793 0,17.6417296 C0,15.9232176 0,15.566232 0,15.566232 L6.19354839,11.4152368" id="Shape"></path>
                </g>
                <path d="M26.8387097,51.8874399 C26.8387097,53.0331146 25.9138065,53.9629375 24.7741935,53.9629375 L19.6129032,53.9629375 L23.7419355,62.2649279 L7.22580645,53.9629375 L2.06451613,53.9629375 C0.923870968,53.9629375 0,53.0331146 0,51.8874399 L0,26.9814688 C0,25.8357941 0.923870968,24.9059712 2.06451613,24.9059712 L24.7741935,24.9059712 C25.9138065,24.9059712 26.8387097,25.8357941 26.8387097,26.9814688 L26.8387097,51.8874399 Z" id="Shape" stroke-linejoin="round"></path>
                <g id="Group" transform="translate(41.290323, 18.679478)">
                    <path d="M14.4516129,5.70761839 C14.4516129,9.33973919 12.4252903,12.4529856 9.29032258,12.4529856 C6.15535484,12.4529856 4.12903226,9.33973919 4.12903226,5.70761839 C4.12903226,2.0754976 5.16129032,0 9.29032258,0 C13.4193548,0 14.4516129,2.0754976 14.4516129,5.70761839 Z" id="Shape"></path>
                    <path d="M12.3870968,11.4152368 L18.5806452,15.566232 C18.5806452,15.566232 18.5806452,15.9232176 18.5806452,17.6417296 C18.5806452,19.3612793 17.5483871,20.754976 16.516129,20.754976 L2.06451613,20.754976 C1.03225806,20.754976 0,19.3612793 0,17.6417296 C0,15.9232176 0,15.566232 0,15.566232 L6.19354839,11.4152368" id="Shape"></path>
                </g>
                <path d="M44.3870968,14.5284832 L61.9354839,14.5284832 C63.0750968,14.5284832 64,15.4583061 64,16.6039808 L64,41.509952 C64,42.6556266 63.0750968,43.5854496 61.9354839,43.5854496 L56.7741935,43.5854496 L40.2580645,51.8874399 L44.3870968,43.5854496 L39.2258065,43.5854496 C38.0851613,43.5854496 37.1612903,42.6556266 37.1612903,41.509952 L37.1612903,32.1702128" id="Shape" stroke-linejoin="round"></path>
                <g id="Group" transform="translate(18.580645, 4.150995)">
                    <path d="M14.4516129,5.70761839 C14.4516129,9.33973919 12.4252903,12.4529856 9.29032258,12.4529856 C6.15535484,12.4529856 4.12903226,9.33973919 4.12903226,5.70761839 C4.12903226,2.0754976 5.16129032,0 9.29032258,0 C13.4193548,0 14.4516129,2.0754976 14.4516129,5.70761839 Z" id="Shape"></path>
                    <polyline id="Shape" points="0 17.6417296 0 15.566232 6.19354839 11.4152368"></polyline>
                    <path d="M12.3870968,11.4152368 L18.5806452,15.566232 C18.5806452,15.566232 18.5806452,15.9232176 18.5806452,17.6417296 C18.5806452,19.3612793 17.5483871,20.754976 16.516129,20.754976 L11.3548387,20.754976" id="Shape"></path>
                </g>
                <path d="M14.4516129,21.7927248 L14.4516129,2.0754976 C14.4516129,0.928785175 15.3754839,0 16.516129,0 L39.2258065,0 C40.3654194,0 41.2903226,0.928785175 41.2903226,2.0754976 L41.2903226,26.9814688 C41.2903226,28.1271434 40.3654194,29.0569664 39.2258065,29.0569664 L34.0645161,29.0569664 L29.9365161,35.2844969" id="Shape" stroke-linejoin="round"></path>
                <path d="M39.2258065,58.1139327 L41.2903226,58.1139327" id="Shape" stroke-linejoin="round"></path>
                <path d="M35.0967742,58.1139327 L37.1612903,58.1139327" id="Shape" stroke-linejoin="round"></path>
                <path d="M30.9677419,58.1139327 L33.0322581,58.1139327" id="Shape" stroke-linejoin="round"></path>
                <path d="M43.3548387,58.1139327 L45.4193548,58.1139327" id="Shape" stroke-linejoin="round"></path>
            </g>
        </g>
    </g>
</svg>