<?xml version="1.0" encoding="UTF-8"?>
<svg width="143px" height="61px" viewBox="0 0 143 61" version="1.1" xmlns="http://www.w3.org/2000/svg" xmlns:xlink="http://www.w3.org/1999/xlink">
    <!-- Generator: Sketch Beta 49.1 (51145) - http://www.bohemiancoding.com/sketch -->
    <title>Group 6</title>
    <desc>Created with Sketch Beta.</desc>
    <defs></defs>
    <g id="Engage" stroke="none" stroke-width="1" fill="none" fill-rule="evenodd">
        <g id="2-pt-lines-size-48px-and-up" transform="translate(-380.000000, -647.000000)" stroke="#00BF6F" stroke-width="2">
            <g id="Group-6" transform="translate(381.000000, 648.000000)">
                <g id="31-actress-avatar">
                    <path d="M3.80952381,52.3809524 L3.80952381,60" id="Shape" stroke-linejoin="round"></path>
                    <path d="M40,52.3809524 L40,60" id="Shape" stroke-linejoin="round"></path>
                    <path d="M49.5238095,60 L49.5238095,47.6190476 C49.5238095,41.8333333 44.7619048,40 39.047619,38.0952381 C39.047619,38.0952381 30.4761905,35.2380952 30.4761905,33.3333333 C30.4761905,31.4285714 30.4761905,26.6666667 30.4761905,26.6666667" id="Shape"></path>
                    <path d="M0,60 L0,47.6190476 C0,41.8333333 4.76190476,40 10.4761905,38.0952381 C10.4761905,38.0952381 19.047619,35.2380952 19.047619,33.3333333 C19.047619,31.4285714 19.047619,26.6666667 19.047619,26.6666667" id="Shape"></path>
                    <path d="M33.3333333,10.4761905 C33.3333333,10.4761905 30.3485714,12.3809524 26.6666667,12.3809524 C22.9847619,12.3809524 20,10.6752381 20,8.57142857 C20,10.6752381 18.2942857,12.3809524 16.1904762,12.3809524 L16.1904762,15.2380952 C16.1904762,22.0761905 17.1428571,28.5714286 24.7619048,28.5714286 C32.3809524,28.5714286 33.3333333,22.0761905 33.3333333,15.2380952 L33.3333333,10.4761905 Z" id="Shape" stroke-linejoin="round"></path>
                    <path d="M39.047619,18.0952381 C39.6971429,19.2171429 40,20.5152381 40,21.9047619 C40,26.1133333 36.5885714,29.5238095 32.3809524,29.5238095" id="Shape" stroke-linejoin="round"></path>
                    <path d="M13.3333333,20 C10.7028571,20 8.57142857,16.9161905 8.57142857,14.2857143 C8.57142857,11.6552381 10.7028571,8.57142857 13.3333333,8.57142857 C13.3333333,3.31142857 17.5971429,0 22.8571429,0 L26.6666667,0 C31.9266667,0 36.1904762,3.31142857 36.1904762,8.57142857 C38.8209524,8.57142857 40.952381,11.6552381 40.952381,14.2857143 C40.952381,16.9161905 38.8209524,20 36.1904762,20" id="Shape" stroke-linejoin="round"></path>
                    <path d="M10.4761905,18.0952381 C9.82666667,19.2171429 9.52380952,20.5152381 9.52380952,21.9047619 C9.52380952,26.1133333 12.9352381,29.5238095 17.1428571,29.5238095" id="Shape" stroke-linejoin="round"></path>
                    <path d="M13.3333333,37.1428571 L13.3333333,40 C13.3333333,46.312381 24.7619048,51.4285714 24.7619048,51.4285714 C24.7619048,51.4285714 36.1904762,46.312381 36.1904762,40 L36.1904762,37.1428571" id="Shape" stroke-linejoin="round"></path>
                    <path d="M19.047619,36.1904762 L19.047619,38.0952381" id="Shape" stroke-linejoin="round"></path>
                    <path d="M21.9047619,37.1428571 L21.9047619,39.047619" id="Shape" stroke-linejoin="round"></path>
                    <path d="M24.7619048,38.0952381 L24.7619048,40" id="Shape" stroke-linejoin="round"></path>
                    <path d="M24.7619048,40.952381 L24.7619048,42.8571429" id="Shape" stroke-linejoin="round"></path>
                    <path d="M27.6190476,37.1428571 L27.6190476,39.047619" id="Shape" stroke-linejoin="round"></path>
                    <path d="M30.4761905,36.1904762 L30.4761905,38.0952381" id="Shape" stroke-linejoin="round"></path>
                </g>
                <g id="31-hipster-avatar" transform="translate(44.761905, 0.000000)" stroke-linejoin="round">
                    <g id="Group" transform="translate(9.523810, 38.095238)">
                        <path d="M0,0.952380952 L0,21.9047619" id="Shape"></path>
                        <path d="M3.80952381,0 L3.80952381,21.9047619" id="Shape"></path>
                    </g>
                    <g id="Group" transform="translate(40.000000, 38.095238)">
                        <path d="M3.80952381,0.952380952 L3.80952381,21.9047619" id="Shape"></path>
                        <path d="M0,0 L0,21.9047619" id="Shape"></path>
                    </g>
                    <path d="M32.3809524,32.3809524 L35.2380952,36.1904762 L40.952381,38.0952381 C46.6666667,40 53.3333333,42.7857143 53.3333333,48.5714286 L53.3333333,60" id="Shape"></path>
                    <path d="M20.952381,32.3809524 L18.0952381,36.1904762 L12.3809524,38.0952381 C6.66666667,40 0,42.7857143 0,48.5714286 L0,60" id="Shape"></path>
                    <g id="Group" transform="translate(14.285714, 0.000000)">
                        <path d="M1.9047619,8.57142857 L1.9047619,3.80952381 L0,1.9047619 L0,0 L19.047619,0 C21.1514286,0 22.8571429,1.70571429 22.8571429,3.80952381 L22.8571429,10.4761905 L18.0952381,8.57142857 L8.57142857,8.57142857 L5.71428571,6.66666667 L4.76190476,8.57142857 L1.9047619,8.57142857 Z" id="Shape"></path>
                        <path d="M22.8571429,16.1904762 C22.8571429,22.8571429 17.1428571,25.7142857 17.1428571,25.7142857 L15.2380952,21.9047619 L9.52380952,21.9047619 L7.61904762,25.7142857 C7.61904762,25.7142857 1.9047619,22.8571429 1.9047619,16.1904762" id="Shape"></path>
                        <path d="M22.8571429,12.3809524 L22.8571429,23.8095238 C22.8571429,28.5714286 19.047619,33.3333333 12.3809524,33.3333333 C5.71428571,33.3333333 1.9047619,28.5714286 1.9047619,23.8095238 L1.9047619,10.4761905" id="Shape"></path>
                        <circle id="Oval" cx="7.61904762" cy="15.2380952" r="2.85714286"></circle>
                        <circle id="Oval" cx="17.1428571" cy="15.2380952" r="2.85714286"></circle>
                        <path d="M4.76190476,15.2380952 L1.9047619,15.2380952" id="Shape"></path>
                        <path d="M20,15.2380952 L22.8571429,15.2380952" id="Shape"></path>
                        <path d="M10.4761905,15.2380952 L14.2857143,15.2380952" id="Shape"></path>
                    </g>
                    <polyline id="Shape" points="32.3809524 33.3333333 26.6666667 39.047619 20.952381 33.3333333"></polyline>
                    <polygon id="Shape" points="31.4285714 45.7142857 26.6666667 42.8571429 21.9047619 45.7142857 19.047619 45.7142857 19.047619 40 21.9047619 40 26.6666667 42.8571429 31.4285714 40 34.2857143 40 34.2857143 45.7142857"></polygon>
                    <path d="M26.6666667,46.6666667 L26.6666667,48.5714286" id="Shape"></path>
                    <path d="M26.6666667,50.4761905 L26.6666667,52.3809524" id="Shape"></path>
                    <path d="M26.6666667,54.2857143 L26.6666667,56.1904762" id="Shape"></path>
                </g>
                <g id="31-manager-avatar" transform="translate(91.428571, 0.000000)">
                    <path d="M3.80952381,52.3809524 L3.80952381,60" id="Shape" stroke-linejoin="round"></path>
                    <path d="M40,52.3809524 L40,60" id="Shape" stroke-linejoin="round"></path>
                    <path d="M37.1428571,38.0952381 L37.1428571,9.52380952 C37.1428571,4.26380952 32.8790476,0 27.6190476,0 L27.6190476,1.9047619 L21.9047619,0 C16.6447619,0 12.3809524,4.26380952 12.3809524,9.52380952 L12.3809524,38.0952381" id="Shape" stroke-linejoin="round"></path>
                    <path d="M16.1904762,12.3809524 L16.1904762,15.2380952 C16.1904762,22.0761905 19.047619,28.5714286 24.7619048,28.5714286 C30.4761905,28.5714286 33.3333333,22.0761905 33.3333333,15.2380952 L33.3333333,12.3809524 C33.3333333,10.8038095 32.0533333,9.52380952 30.4761905,9.52380952 L24.7619048,9.52380952 L19.047619,6.66666667 L19.047619,9.52380952 C17.4704762,9.52380952 16.1904762,10.8038095 16.1904762,12.3809524 Z" id="Shape" stroke-linejoin="round"></path>
                    <polyline id="Shape" stroke-linejoin="round" points="22.8571429 37.1428571 15.2380952 40 18.0952381 32.3809524 22.8571429 37.1428571 26.6666667 37.1428571 31.4285714 32.3809524 34.2857143 40 26.6666667 37.1428571"></polyline>
                    <path d="M24.7619048,43.8095238 L24.7619048,45.7142857" id="Shape" stroke-linejoin="round"></path>
                    <path d="M24.7619048,40 L24.7619048,41.9047619" id="Shape" stroke-linejoin="round"></path>
                    <path d="M24.7619048,47.6190476 L24.7619048,49.5238095" id="Shape" stroke-linejoin="round"></path>
                    <path d="M24.7619048,51.4285714 L24.7619048,53.3333333" id="Shape" stroke-linejoin="round"></path>
                    <path d="M24.7619048,55.2380952 L24.7619048,57.1428571" id="Shape" stroke-linejoin="round"></path>
                    <path d="M29.5238095,48.5714286 L37.1428571,48.5714286" id="Shape" stroke-linejoin="round"></path>
                    <path d="M0,60 L0,49.5238095 C0,43.7380952 2.85714286,41.9047619 8.57142857,40 L17.1428571,35.2380952" id="Shape"></path>
                    <path d="M49.5238095,60 L49.5238095,49.5238095 C49.5238095,43.7380952 46.6666667,41.9047619 40.952381,40 L32.3809524,35.2380952" id="Shape"></path>
                    <path d="M19.047619,25.7142857 L19.047619,33.3333333" id="Shape" stroke-linejoin="round"></path>
                    <path d="M30.4761905,25.7142857 L30.4761905,33.3333333" id="Shape" stroke-linejoin="round"></path>
                </g>
            </g>
        </g>
    </g>
</svg>