<?xml version="1.0" encoding="UTF-8"?>
<svg width="66px" height="48px" viewBox="0 0 66 48" version="1.1" xmlns="http://www.w3.org/2000/svg" xmlns:xlink="http://www.w3.org/1999/xlink">
    <!-- Generator: Sketch Beta 49.1 (51145) - http://www.bohemiancoding.com/sketch -->
    <title>08-market-forecast</title>
    <desc>Created with Sketch Beta.</desc>
    <defs></defs>
    <g id="Engage" stroke="none" stroke-width="1" fill="none" fill-rule="evenodd" stroke-linejoin="round">
        <g id="2-pt-lines-size-48px-and-up" transform="translate(-50.000000, -672.000000)" stroke="#00BF6F" stroke-width="2">
            <g id="08-market-forecast" transform="translate(51.000000, 673.000000)">
                <rect id="Rectangle-path" x="0" y="6.21034742" width="4.11086827" height="8.28046322"></rect>
                <rect id="Rectangle-path" x="4.11086827" y="4.14023161" width="22.6097755" height="12.4206948"></rect>
                <rect id="Rectangle-path" x="26.7206437" y="2.07011581" width="24.6652096" height="16.5609264"></rect>
                <rect id="Rectangle-path" x="51.3858533" y="0" width="8.22173654" height="20.7011581"></rect>
                <polyline id="Shape" points="48.3027021 22.7712739 18.4989072 22.7712739 18.4989072 19.6661002"></polyline>
                <path d="M31.4666667,22.7712739 L31.4666667,46.5776056" id="Shape"></path>
                <path d="M23.6374925,10.2057143 L7.19401947,10.2057143" id="Shape"></path>
                <path d="M38.0255315,10.2057143 L40.0809656,10.2057143" id="Shape"></path>
                <path d="M42.1363997,10.2057143 L44.1918339,10.2057143" id="Shape"></path>
                <path d="M33.9146632,10.2057143 L35.9700973,10.2057143" id="Shape"></path>
                <polyline id="Shape" points="11.3048877 46.5776056 11.3048877 43.4724319 31.8592291 22.7712739"></polyline>
                <polyline id="Shape" points="52.4135704 46.5776056 52.4135704 43.4724319 31.8592291 22.7712739"></polyline>
                <path d="M59.6075899,2.07011581 C63.7184581,2.07011581 63.7184581,5.77769322 63.7184581,10.350579 C63.7184581,14.9244999 63.7184581,18.6310423 59.6075899,18.6310423" id="Shape"></path>
            </g>
        </g>
    </g>
</svg>