<?xml version="1.0" encoding="UTF-8"?>
<svg width="64px" height="63px" viewBox="0 0 64 63" version="1.1" xmlns="http://www.w3.org/2000/svg" xmlns:xlink="http://www.w3.org/1999/xlink">
    <!-- Generator: Sketch Beta 49.1 (51145) - http://www.bohemiancoding.com/sketch -->
    <title>44-mission-accomplished</title>
    <desc>Created with Sketch Beta.</desc>
    <defs></defs>
    <g id="Engage" stroke="none" stroke-width="1" fill="none" fill-rule="evenodd">
        <g id="2-pt-lines-size-48px-and-up" transform="translate(-381.000000, -467.000000)" stroke="#00BF6F" stroke-width="2">
            <g id="44-mission-accomplished" transform="translate(381.000000, 468.000000)">
                <polyline id="Shape" points="27 62 27 0 31 0 31 62"></polyline>
                <g id="Group" transform="translate(1.000000, 4.000000)">
                    <path d="M6.4,35 L6.4,58" id="Shape"></path>
                    <path d="M6.4,15 L6.4,17" id="Shape"></path>
                    <path d="M4,32 L16,32" id="Shape"></path>
                    <path d="M2.13333333,34 L2.13333333,58" id="Shape"></path>
                    <path d="M16,19 L16,34 L20,34 L20,16 C20,13.791 18.209,12 16,12 L4,12 C1.791,12 0,13.792 0,16 L0,34 L4,34 L4,19" id="Shape"></path>
                    <path d="M14.9333333,58 L14.9333333,34" id="Shape"></path>
                    <circle id="Oval" cx="10" cy="4" r="4"></circle>
                </g>
                <path d="M0,59.7333333 L64,59.7333333" id="Shape"></path>
                <polyline id="Shape" stroke-linejoin="round" points="44 25 44 5 31 5 31 25 44 25 39 30 63 30 56 19 63 8 47 8"></polyline>
                <path d="M38.4,30 L38.4,25" id="Shape" stroke-linejoin="round"></path>
                <path d="M53,17.0666667 L51,17.0666667" id="Shape" stroke-linejoin="round"></path>
                <path d="M49,17.0666667 L47,17.0666667" id="Shape" stroke-linejoin="round"></path>
                <polyline id="Shape" points="37 62 37 48 59 48 59 62"></polyline>
                <polyline id="Shape" points="43 48 43 44 53 44 53 48"></polyline>
                <path d="M37,53.3333333 L59,53.3333333" id="Shape" stroke-linejoin="round"></path>
                <path d="M46.9333333,54 L46.9333333,57" id="Shape" stroke-linejoin="round"></path>
            </g>
        </g>
    </g>
</svg>