<?xml version="1.0" encoding="UTF-8"?>
<svg width="66px" height="69px" viewBox="0 0 66 69" version="1.1" xmlns="http://www.w3.org/2000/svg" xmlns:xlink="http://www.w3.org/1999/xlink">
    <!-- Generator: Sketch Beta 49.1 (51145) - http://www.bohemiancoding.com/sketch -->
    <title>05-personal-development</title>
    <desc>Created with Sketch Beta.</desc>
    <defs></defs>
    <g id="Engage" stroke="none" stroke-width="1" fill="none" fill-rule="evenodd">
        <g id="2-pt-lines-size-48px-and-up" transform="translate(-50.000000, -281.000000)" stroke="#00BF6F" stroke-width="2">
            <g id="05-personal-development" transform="translate(51.000000, 282.000000)">
                <path d="M26.8245333,2.049664 C28.4373333,0.724672 30.1813333,0 32,0 C40.2474667,0 46.9333333,14.878288 46.9333333,33.232 C46.9333333,51.585712 40.2474667,66.464 32,66.464 C23.7525333,66.464 17.0666667,51.585712 17.0666667,33.232 C17.0666667,25.557552 18.2357333,18.489856 20.1994667,12.864" id="Shape"></path>
                <path d="M61.5413333,44.936096 C61.7376,46.759568 61.4549333,48.423312 60.6357333,49.848 C56.512,57.026112 40.3488,55.40632 24.5333333,46.23 C8.71786667,37.05368 -0.760533333,23.794112 3.3632,16.616 C7.48693333,9.437888 23.6512,11.05768 39.4666667,20.234 C46.1226667,24.097488 51.6576,28.682432 55.5274667,33.234144" id="Shape"></path>
                <path d="M2.45866667,44.933952 C2.26133333,46.757424 2.54506667,48.42224 3.3632,49.848 C7.48693333,57.026112 23.6512,55.40632 39.4666667,46.23 C55.2821333,37.05368 64.7605333,23.794112 60.6368,16.616 C56.5130667,9.437888 40.3488,11.05768 24.5333333,20.234 C17.8773333,24.097488 12.3434667,28.68136 8.47466667,33.232" id="Shape"></path>
                <ellipse id="Oval" cx="3.2" cy="41.808" rx="3.2" ry="3.216"></ellipse>
                <ellipse id="Oval" cx="60.8" cy="41.808" rx="3.2" ry="3.216"></ellipse>
                <ellipse id="Oval" cx="24.5333333" cy="4.288" rx="3.2" ry="3.216"></ellipse>
                <g id="Group" transform="translate(22.400000, 22.512000)">
                    <path d="M0,19.296 C0,12.864 6.4,11.792 6.4,11.792" id="Shape"></path>
                    <path d="M19.2,19.296 C19.2,12.864 12.8,11.792 12.8,11.792" id="Shape"></path>
                    <path d="M14.9333333,5.896 C14.9333333,9.648 12.8394667,12.864 9.6,12.864 C6.36053333,12.864 4.26666667,9.648 4.26666667,5.896 C4.26666667,2.144 5.33333333,0 9.6,0 C13.8666667,0 14.9333333,2.144 14.9333333,5.896 Z" id="Shape"></path>
                </g>
            </g>
        </g>
    </g>
</svg>