<?xml version="1.0" encoding="UTF-8"?>
<svg width="65px" height="53px" viewBox="0 0 65 53" version="1.1" xmlns="http://www.w3.org/2000/svg" xmlns:xlink="http://www.w3.org/1999/xlink">
    <!-- Generator: Sketch Beta 49.1 (51145) - http://www.bohemiancoding.com/sketch -->
    <title>09-team-leader</title>
    <desc>Created with Sketch Beta.</desc>
    <defs></defs>
    <g id="Engage" stroke="none" stroke-width="1" fill="none" fill-rule="evenodd">
        <g id="2-pt-lines-size-48px-and-up" transform="translate(-595.000000, -292.000000)" stroke="#00BF6F" stroke-width="2">
            <g id="09-team-leader" transform="translate(596.000000, 293.000000)">
                <g id="Group" transform="translate(44.492429, 13.083871)">
                    <path d="M13.1454905,5.53548387 C13.1454905,9.05806452 11.1605214,12.0774194 8.08953259,12.0774194 C5.01854378,12.0774194 3.03357472,9.05806452 3.03357472,5.53548387 C3.03357472,2.01290323 4.04476629,0 8.08953259,0 C12.1342989,0 13.1454905,2.01290323 13.1454905,5.53548387 Z" id="Shape"></path>
                    <path d="M0,14.0903226 L5.05595787,11.0709677" id="Shape"></path>
                    <path d="M11.1231073,11.0709677 L18.2014483,15.0967742 C18.2014483,15.0967742 18.2014483,15.4429935 18.2014483,17.1096774 C18.2014483,18.7763613 17.1902567,20.1290323 16.1790652,20.1290323 L10.1119157,20.1290323" id="Shape"></path>
                </g>
                <g id="Group" transform="translate(0.000000, 13.083871)">
                    <path d="M5.05595787,5.53548387 C5.05595787,9.05806452 7.04092693,12.0774194 10.1119157,12.0774194 C13.1829045,12.0774194 15.1678736,9.05806452 15.1678736,5.53548387 C15.1678736,2.01290323 14.156682,0 10.1119157,0 C6.06714944,0 5.05595787,2.01290323 5.05595787,5.53548387 Z" id="Shape"></path>
                    <path d="M18.2014483,14.0903226 L13.1454905,11.0709677" id="Shape"></path>
                    <path d="M7.07834101,11.0709677 L0,15.0967742 C0,15.0967742 0,15.4429935 0,17.1096774 C0,18.7763613 1.01119157,20.1290323 2.02238315,20.1290323 L8.08953259,20.1290323" id="Shape"></path>
                </g>
                <g id="Group" transform="translate(9.100724, 0.000000)">
                    <g id="Shape">
                        <path d="M0,51.3290323 L0,42.2709677 C0,32.2064516 7.07834101,33.2129032 14.156682,29.1870968"></path>
                        <path d="M30.3357472,29.1870968 C37.4140882,33.2129032 44.4924292,32.2064516 44.4924292,42.2709677 L44.4924292,51.3290323"></path>
                        <polygon points="26.2909809 33.2129032 22.2462146 31.2 18.2014483 33.2129032 14.156682 29.1870968 16.1790652 26.1677419 22.2462146 27.1741935 28.3133641 26.1677419 30.3357472 29.1870968"></polygon>
                        <path d="M27.3021725,22.1419355 L27.3021725,26.1677419"></path>
                        <path d="M17.1902567,26.1677419 L17.1902567,22.1419355"></path>
                        <path d="M21.235023,40.2580645 L23.2574062,40.2580645"></path>
                        <path d="M21.235023,36.2322581 L23.2574062,36.2322581"></path>
                        <path d="M31.3469388,9.05806452 C31.3469388,2.94387097 28.3892034,0 22.2462146,0 C16.1032258,0 13.1454905,2.94387097 13.1454905,9.05806452 L13.1454905,13.083871 C14.156682,20.1290323 17.1902567,22.1419355 17.1902567,22.1419355 C19.2126399,23.1483871 22.2462146,23.1483871 22.2462146,23.1483871 C22.2462146,23.1483871 25.2797893,23.1483871 27.3021725,22.1419355 C27.3021725,22.1419355 30.3357472,20.1290323 31.3469388,13.083871 L31.3469388,9.05806452 Z"></path>
                        <polyline points="13.1454905 9.05806452 17.1902567 7.04516129 22.2462146 9.05806452 27.3021725 11.0709677 31.3469388 9.05806452"></polyline>
                    </g>
                    <path d="M8.08953259,51.3290323 L8.08953259,43.2774194" id="Shape"></path>
                    <path d="M36.4028966,51.3290323 L36.4028966,43.2774194" id="Shape"></path>
                </g>
            </g>
        </g>
    </g>
</svg>